<svg xmlns="http://www.w3.org/2000/svg" fill="none" viewBox="0 0 500 450" width="500" height="450"><defs><clipPath id="assetClipPath_Z1FQzHMa"><path d="m0 0 h 357.936 a 0,0 0 0 1 0,0 v 354.819 a 0,0 0 0 1 -0,0 h -357.936 a 0,0 0 0 1 -0,-0 v -354.819 a 0,0 0 0 1 0,-0 z" id="path_QyGdgqS9" fill="#ffffff" /></clipPath><clipPath id="assetClipPath_g4HRVEQo"><path d="m0 0 h 109.559 a 0,0 0 0 1 0,0 v 109.559 a 0,0 0 0 1 -0,0 h -109.559 a 0,0 0 0 1 -0,-0 v -109.559 a 0,0 0 0 1 0,-0 z" id="path_FcHQlUNw" fill="#ffffff" /></clipPath><clipPath id="assetClipPath_fYGzgokY"><path d="m0 0 h 195.606 a 0,0 0 0 1 0,0 v 106.649 a 0,0 0 0 1 -0,0 h -195.606 a 0,0 0 0 1 -0,-0 v -106.649 a 0,0 0 0 1 0,-0 z" id="path_Mbiout6B" fill="#ffffff" /></clipPath></defs><g transform="translate(51 28) rotate(0 179 176.5) scale(1 1)" opacity="1" data-asset-index="0"><g clip-path="url(#assetClipPath_Z1FQzHMa)" transform="scale(1.0001788029144876 1.0001788029144876)" data-asset-index="0"><defs data-selector="defs[1]" /><clipPath id="clipPath_Vj0SEGnm" data-selector="clippath[2]"><circle cx="179.3" cy="177.387" r="173.401" data-selector="clippath[2]&gt;circle[1]" /></clipPath><circle cx="179.3" cy="177.387" fill="rgba(222,240,255,1)" r="173.401" id="WCxYJkd9i3nrq6Sn9d1MJ" data-selector="circle[3]" /><g clip-path="url(#clipPath_Vj0SEGnm)" id="znTPeY_dqwYnBbvoiHl2B" data-selector="g[4]"><path d="m237.706 564.941-38.449-38.449-10.67 10.669-1.414-1.414 10.669-10.67-16.785-16.785-11.321 11.321-1.414-1.414 11.321-11.321-16.785-16.785-10.67 10.669-1.414-1.414 10.669-10.67-16.785-16.785-10.669 10.669-1.414-1.414 10.669-10.669-16.785-16.785-10.763 10.763-1.414-1.414 10.763-10.763-16.785-16.785-12.15 12.15-1.414-1.414 12.15-12.15-16.785-16.785-13.276 13.276-1.414-1.414 13.276-13.276-16.785-16.785-10.741 10.741-1.414-1.414 10.741-10.741-16.785-16.785-13.276 13.276-1.414-1.414 13.276-13.276-16.785-16.785-13.927 13.927-1.414-1.414 13.927-13.927-16.785-16.785-10.677 10.677-1.414-1.414 10.677-10.677-16.787-16.787-13.927 13.927-1.414-1.414 13.927-13.927-16.785-16.785-14.979 14.979-1.414-1.414 14.979-14.979-16.785-16.785-13.276 13.276-1.414-1.414 13.276-13.276-16.785-16.785-13.811 13.811-1.414-1.414 13.811-13.811-16.785-16.785-12.472 12.472-1.414-1.414 12.472-12.472-16.785-16.785-13.289 13.289-1.414-1.414 13.289-13.289-16.785-16.785-13.275 13.275-1.414-1.414 13.275-13.275-16.785-16.785-16.534 16.534-1.414-1.414 16.534-16.534-16.785-16.785-15.325 15.325-1.414-1.414 15.325-15.325-16.785-16.785-16.933 16.933-1.414-1.414 16.933-16.933-16.785-16.785-15.181 15.18-1.414-1.414 15.18-15.181-32.934-32.934 1.414-1.414 32.934 32.934 16.785-16.785-32.934-32.934 1.414-1.414 32.934 32.934 16.785-16.785-32.934-32.934 1.414-1.414 32.934 32.934 16.785-16.785-32.934-32.934 1.414-1.414 32.934 32.934 16.785-16.785-32.934-32.934 1.414-1.414 32.934 32.934 16.785-16.785-32.934-32.934 1.414-1.414 32.934 32.934 16.785-16.785-32.934-32.939 1.414-1.414 32.934 32.934 16.785-16.785-32.934-32.934 1.414-1.414 32.934 32.933 16.785-16.785-32.934-32.934 1.414-1.414 32.934 32.934 16.785-16.785-32.934-32.934 1.414-1.414 32.935 32.933 16.785-16.785-32.934-32.934 1.414-1.414 32.934 32.934 16.785-16.785-32.934-32.934 1.414-1.414 32.935 32.934 16.785-16.785-32.934-32.934 1.414-1.414 32.934 32.934 16.785-16.785-32.934-32.934 1.414-1.414 32.934 32.934 16.785-16.785-32.934-32.934 1.414-1.414 32.934 32.934 16.785-16.785-32.934-32.934 1.414-1.414 32.934 32.934 16.785-16.785-32.934-32.934 1.414-1.414 32.934 32.934 16.785-16.785-32.934-32.934 1.414-1.414 32.934 32.934 16.785-16.785-32.934-32.934 1.414-1.414 32.934 32.934 16.785-16.785-32.934-32.934 1.414-1.414 32.934 32.934 27.865-27.865 1.414 1.414-27.865 27.865 16.785 16.785 28.088-28.088 1.414 1.414-28.088 28.088 16.785 16.785 27.943-27.943 1.414 1.414-27.943 27.943 16.785 16.785 27.87-27.87 1.414 1.414-27.87 27.87 16.785 16.785 27.817-27.816 1.414 1.414-27.816 27.817 16.785 16.785 28.712-28.712 1.414 1.414-28.712 28.712 16.785 16.785 29.183-29.183 1.414 1.414-29.183 29.183 16.785 16.785 29.952-29.952 1.414 1.414-29.952 29.952 16.785 16.785 30.472-30.471 1.414 1.414-30.472 30.472 16.785 16.785 31.516-31.516 1.414 1.414-31.516 31.516 16.785 16.785 30.472-30.471 1.414 1.414-30.471 30.472 16.785 16.785 31.123-31.123 1.414 1.414-31.123 31.123 16.785 16.785 33.155-33.155 1.414 1.414-33.155 33.155 16.785 16.785 36.84-36.84 1.414 1.414-36.84 36.841 16.785 16.785 35.142-35.142 1.414 1.414-35.142 35.142 16.785 16.785 34.307-34.307 1.414 1.414-34.307 34.307 16.785 16.785 34.381-34.381 1.414 1.414-34.381 34.381 16.785 16.785 33.43-33.43 1.414 1.414-33.43 33.43 16.785 16.785 34.445-34.445 1.414 1.414-34.445 34.445 16.785 16.785 35.033-35.033 1.414 1.414-35.032 35.033 16.785 16.785 37.425-37.425 1.414 1.414-37.425 37.425 16.785 16.785 38.974-38.974 1.414 1.414-38.974 38.974 38.449 38.449-1.414 1.414-38.449-38.449-16.785 16.785 38.449 38.449-1.414 1.414-38.45-38.449-16.785 16.785 38.449 38.449-1.414 1.414-38.449-38.449-16.785 16.785 38.449 38.449-1.414 1.414-38.449-38.449-16.785 16.785 38.449 38.449-1.414 1.414-38.449-38.449-16.785 16.785 38.449 38.449-1.414 1.414-38.449-38.449-16.785 16.785 38.449 38.449-1.414 1.414-38.45-38.449-16.785 16.785 38.449 38.449-1.414 1.414-38.449-38.449-16.785 16.785 38.449 38.449-1.414 1.414-38.449-38.449-16.785 16.785 38.449 38.449-1.414 1.414-38.449-38.449-16.785 16.785 38.45 38.449-1.414 1.414-38.449-38.45-16.785 16.785 38.449 38.449-1.414 1.414-38.449-38.449-16.785 16.785 38.449 38.449-1.414 1.414-38.449-38.449-16.785 16.785 38.449 38.449-1.414 1.414-38.449-38.449-16.785 16.785 38.449 38.449-1.414 1.414-38.449-38.449-16.785 16.785 38.45 38.449-1.414 1.414-38.449-38.45-16.785 16.785 38.449 38.449-1.414 1.414-38.449-38.449-16.785 16.785 38.449 38.449-1.414 1.414-38.449-38.449-16.785 16.785 38.449 38.449-1.414 1.414-38.449-38.449-16.785 16.785 38.449 38.449-1.414 1.414zm-55.234-58.063 16.785 16.785 16.785-16.785-16.785-16.785zm-18.199-18.199 16.785 16.785 16.785-16.785-16.785-16.785zm36.398 0 16.785 16.785 16.785-16.785-16.785-16.785zm-54.598-18.2 16.785 16.785 16.785-16.785-16.785-16.785zm36.399 0 16.785 16.785 16.785-16.785-16.785-16.785zm36.399 0 16.785 16.785 16.785-16.785-16.785-16.785zm-90.997-18.199 16.785 16.785 16.785-16.785-16.785-16.785zm36.399 0 16.785 16.785 16.785-16.785-16.785-16.785zm72.797 0 16.785 16.785 16.785-16.785-16.785-16.785zm-36.399 0 16.785 16.785 16.785-16.785-16.785-16.785zm-90.997-18.2 16.785 16.785 16.785-16.785-16.785-16.785zm36.399 0 16.785 16.785 16.785-16.785-16.785-16.785zm109.196 0 16.785 16.785 16.785-16.785-16.785-16.785zm-36.398 0 16.785 16.785 16.785-16.785-16.785-16.785zm-36.399 0 16.785 16.785 16.785-16.785-16.785-16.785zm-54.598-18.199 16.785 16.785 16.785-16.785-16.785-16.785zm36.399 0 16.785 16.785 16.785-16.785-16.785-16.785zm36.398 0 16.785 16.785 16.785-16.785-16.785-16.785zm72.798 0 16.785 16.785 16.785-16.785-16.785-16.785zm-36.399 0 16.785 16.785 16.785-16.785-16.785-16.785zm-145.595 0 16.785 16.785 16.785-16.785-16.785-16.785zm-18.199-18.199 16.785 16.785 16.785-16.785-16.785-16.785zm218.392 0 16.785 16.785 16.785-16.785-16.785-16.785zm-109.196 0 16.785 16.785 16.785-16.785-16.785-16.785zm-36.399 0 16.785 16.785 16.785-16.785-16.785-16.785zm72.798 0 16.785 16.785 16.785-16.785-16.785-16.785zm36.398 0 16.785 16.785 16.785-16.785-16.785-16.785zm-145.594 0 16.785 16.785 16.785-16.785-16.785-16.785zm-18.2-18.2 16.785 16.785 16.785-16.785-16.785-16.785zm181.994.001 16.785 16.785 16.785-16.785-16.785-16.785zm-72.798-.001 16.785 16.785 16.785-16.785-16.785-16.785zm-36.398 0 16.785 16.785 16.785-16.785-16.785-16.785zm72.797 0 16.785 16.785 16.785-16.785-16.785-16.785zm72.797 0 16.785 16.785 16.785-16.785-16.785-16.785zm-254.791 0 16.785 16.785 16.785-16.785-16.785-16.785zm72.798 0 16.785 16.785 16.785-16.785-16.785-16.785zm127.395-18.199 16.785 16.785 16.785-16.785-16.785-16.785zm-218.392 0 16.785 16.785 16.785-16.785-16.785-16.785zm72.797 0 16.785 16.785 16.785-16.785-16.785-16.785zm109.196 0 16.785 16.785 16.785-16.785-16.785-16.785zm-36.398 0 16.785 16.785 16.785-16.785-16.785-16.785zm109.196 0 16.785 16.785 16.785-16.785-16.785-16.785zm36.399 0 16.785 16.785 16.785-16.785-16.785-16.785zm-181.994 0 16.785 16.785 16.785-16.785-16.785-16.785zm-72.797 0 16.785 16.785 16.785-16.785-16.785-16.785zm163.794-18.199 16.785 16.785 16.785-16.785-16.785-16.785zm-109.196 0 16.785 16.785 16.785-16.785-16.785-16.785zm-109.196 0 16.785 16.785 16.785-16.785-16.785-16.785zm181.993 0 16.785 16.785 16.785-16.785-16.785-16.785zm72.798 0 16.785 16.785 16.785-16.785-16.785-16.785zm-218.393 0 16.785 16.785 16.785-16.785-16.785-16.785zm291.19 0 16.785 16.785 16.785-16.785-16.785-16.785zm-36.398 0 16.785 16.785 16.785-16.785-16.785-16.785zm-145.595 0 16.785 16.785 16.785-16.785-16.785-16.785zm-72.798 0 16.785 16.785 16.785-16.785-16.785-16.785zm127.395-18.2 16.785 16.785 16.785-16.785-16.785-16.785zm-72.797 0 16.785 16.785 16.785-16.785-16.785-16.785zm-145.595 0 16.785 16.785 16.785-16.785-16.785-16.785zm254.791 0 16.785 16.785 16.785-16.785-16.785-16.785zm-218.392 0 16.785 16.785 16.785-16.785-16.785-16.785zm36.399 0 16.785 16.785 16.785-16.785-16.785-16.785zm218.392 0 16.785 16.785 16.785-16.785-16.785-16.785zm72.797 0 16.785 16.785 16.785-16.785-16.785-16.785zm-36.398 0 16.785 16.785 16.785-16.785-16.785-16.785zm-145.595 0 16.785 16.785 16.785-16.785-16.785-16.785zm-72.798 0 16.785 16.785 16.785-16.785-16.785-16.785zm54.599-18.199 16.785 16.785 16.785-16.785-16.785-16.785zm-181.994 0 16.785 16.785 16.785-16.785-16.785-16.785zm254.791 0 16.785 16.785 16.785-16.785-16.785-16.785zm145.595 0 16.785 16.785 16.785-16.785-16.785-16.785zm-181.994 0 16.785 16.785 16.785-16.785-16.785-16.785zm-109.196 0 16.785 16.785 16.785-16.785-16.785-16.785zm-72.797 0 16.785 16.785 16.785-16.785-16.785-16.785zm254.791 0 16.785 16.785 16.785-16.785-16.785-16.785zm36.399 0 16.785 16.785 16.785-16.785-16.785-16.785zm-254.792 0 16.785 16.785 16.785-16.785-16.785-16.785zm291.19 0 16.785 16.785 16.785-16.785-16.785-16.785zm-218.392 0 16.785 16.785 16.785-16.785-16.785-16.785zm54.598-18.199 16.785 16.785 16.785-16.785-16.785-16.785zm-218.392 0 16.785 16.785 16.785-16.785-16.785-16.785zm400.385 0 16.785 16.785 16.785-16.785-16.785-16.785zm-254.791 0 16.785 16.785 16.785-16.785-16.785-16.785zm-109.196 0 16.785 16.785 16.785-16.785-16.785-16.785zm72.798-.001 16.785 16.785 16.785-16.785-16.785-16.785zm218.392 0 16.785 16.785 16.785-16.785-16.785-16.785zm-254.791 0 16.785 16.785 16.785-16.785-16.785-16.785zm291.19 0 16.785 16.785 16.785-16.785-16.785-16.785zm-72.798 0 16.785 16.785 16.785-16.785-16.785-16.785zm145.595 0 16.785 16.785 16.785-16.785-16.785-16.785zm-181.993.001 16.785 16.785 16.785-16.785-16.785-16.785zm-72.798-.001 16.785 16.785 16.785-16.785-16.785-16.785zm-200.193-18.198 16.785 16.785 16.785-16.785-16.785-16.785zm254.791-.001 16.785 16.785 16.785-16.785-16.785-16.785zm-218.392 0 16.785 16.785 16.785-16.785-16.785-16.785zm363.987 0 16.785 16.785 16.785-16.785-16.785-16.785zm72.798 0 16.785 16.785 16.785-16.785-16.785-16.785zm-254.792 0 16.785 16.785 16.785-16.785-16.785-16.785zm-36.398 0 16.785 16.785 16.785-16.785-16.785-16.785zm-72.798 0 16.785 16.785 16.785-16.785-16.785-16.785zm36.399 0 16.785 16.785 16.785-16.785-16.785-16.785zm218.392 0 16.785 16.785 16.785-16.785-16.785-16.785zm-291.189 0 16.785 16.785 16.785-16.785-16.785-16.785zm254.791 0 16.785 16.785 16.785-16.785-16.785-16.785zm109.196 0 16.785 16.785 16.785-16.785-16.785-16.785zm-145.595 0 16.785 16.785 16.785-16.785-16.785-16.785zm-309.389-18.199 16.785 16.785 16.785-16.785-16.785-16.785zm218.392 0 16.785 16.785 16.785-16.785-16.785-16.785zm-181.993 0 16.785 16.785 16.785-16.785-16.785-16.785zm363.987 0 16.785 16.785 16.785-16.785-16.785-16.785zm-109.196 0 16.785 16.785 16.785-16.785-16.785-16.785zm218.392 0 16.785 16.785 16.785-16.785-16.785-16.785zm-436.785 0 16.785 16.785 16.785-16.785-16.785-16.785zm400.386 0 16.785 16.785 16.785-16.785-16.785-16.785zm-327.588 0 16.785 16.785 16.785-16.785-16.785-16.785zm-36.399 0 16.785 16.785 16.785-16.785-16.785-16.785zm72.797 0 16.785 16.785 16.785-16.785-16.785-16.785zm254.791 0 16.785 16.785 16.785-16.785-16.785-16.785zm-72.797 0 16.785 16.785 16.785-16.785-16.785-16.785zm-109.196 0 16.785 16.785 16.785-16.785-16.785-16.785zm72.797 0 16.785 16.785 16.785-16.785-16.785-16.785zm-309.389-18.2 16.785 16.785 16.785-16.785-16.785-16.785zm181.994.001 16.785 16.785 16.785-16.785-16.785-16.785zm254.791 0 16.785 16.785 16.785-16.785-16.785-16.785zm-363.987 0 16.785 16.785 16.785-16.785-16.785-16.785zm218.392-.001 16.785 16.785 16.785-16.785-16.785-16.785zm-254.791.001 16.785 16.785 16.785-16.785-16.785-16.786-16.785 16.785zm436.785 0 16.785 16.785 16.785-16.785-16.785-16.785zm36.398 0 16.785 16.785 16.785-16.785-16.785-16.785zm-291.189 0 16.785 16.785 16.785-16.785-16.785-16.785zm-72.798 0 16.785 16.785 16.785-16.785-16.785-16.785zm-36.399 0 16.785 16.785 16.785-16.785-16.785-16.785zm-145.594 0 16.785 16.785 16.785-16.785-16.785-16.785zm400.385 0 16.785 16.785 16.785-16.785-16.785-16.785zm36.399-.001 16.785 16.785 16.785-16.785-16.785-16.785zm-72.797.001 16.785 16.785 16.785-16.785-16.785-16.785zm-72.798-.001 16.785 16.785 16.785-16.785-16.785-16.785zm272.99-18.199 16.785 16.785 16.785-16.785-16.785-16.785zm-363.987 0 16.785 16.785 16.785-16.785-16.785-16.785zm291.19 0 16.785 16.785 16.785-16.785-16.785-16.785zm-400.386 0 16.785 16.785 16.785-16.785-16.785-16.785zm254.791 0 16.785 16.785 16.785-16.785-16.785-16.785zm109.196 0 16.785 16.785 16.785-16.785-16.785-16.785zm-327.588 0 16.785 16.785 16.785-16.785-16.785-16.785zm-72.797 0 16.785 16.785 16.785-16.785-16.785-16.785zm473.183 0 16.785 16.785 16.785-16.785-16.785-16.785zm-363.987 0 16.785 16.785 16.785-16.785-16.785-16.785zm-181.994 0 16.785 16.785 16.785-16.785-16.785-16.785zm254.791 0 16.785 16.785 16.785-16.785-16.785-16.785zm145.595 0 16.785 16.785 16.785-16.785-16.785-16.785zm-109.196 0 16.785 16.785 16.785-16.785-16.785-16.785zm-254.791 0 16.785 16.785 16.785-16.785-16.785-16.785zm400.386 0 16.785 16.785 16.785-16.785-16.785-16.785zm-109.196 0 16.785 16.785 16.785-16.785-16.785-16.785zm54.598-18.199 16.785 16.785 16.785-16.785-16.785-16.785zm181.993 0 16.785 16.785 16.785-16.785-16.785-16.785zm-363.987 0 16.785 16.785 16.785-16.785-16.785-16.785zm-218.392 0 16.785 16.785 16.785-16.785-16.785-16.785zm145.595 0 16.785 16.785 16.785-16.785-16.785-16.785zm400.386 0 16.785 16.785 16.785-16.785-16.785-16.785zm-436.785 0 16.785 16.785 16.785-16.785-16.785-16.785zm400.386 0 16.785 16.785 16.785-16.785-16.785-16.785zm-327.589 0 16.785 16.785 16.785-16.785-16.785-16.785zm72.798 0 16.785 16.785 16.785-16.785-16.785-16.785zm218.392 0 16.785 16.785 16.785-16.785-16.785-16.785zm-145.595 0 16.785 16.785 16.785-16.785-16.785-16.785zm-291.189 0 16.785 16.785 16.785-16.785-16.785-16.785zm254.791 0 16.785 16.785 16.785-16.785-16.785-16.785zm-218.393 0 16.785 16.785 16.785-16.785-16.785-16.785zm545.981 0 16.785 16.785 16.785-16.785-16.785-16.785zm-181.993 0 16.785 16.785 16.785-16.785-16.785-16.785zm-72.798 0 16.785 16.785 16.785-16.785-16.785-16.785zm200.193-18.199 16.785 16.785 16.785-16.785-16.785-16.785zm-363.987 0 16.785 16.785 16.785-16.785-16.785-16.785zm-36.399-.001 16.785 16.785 16.785-16.785-16.785-16.785zm254.791 0 16.785 16.785 16.785-16.785-16.785-16.785zm-291.19 0 16.785 16.785 16.785-16.785-16.785-16.785zm400.386 0 16.785 16.785 16.785-16.785-16.785-16.785zm-545.981 0 16.785 16.785 16.785-16.785-16.785-16.785zm254.791 0 16.785 16.785 16.785-16.785-16.785-16.785zm-218.392 0 16.785 16.785 16.785-16.785-16.785-16.785zm473.183 0 16.785 16.785 16.785-16.785-16.785-16.785zm145.595 0 16.785 16.785 16.785-16.785-16.785-16.785zm-181.993 0 16.785 16.785 16.785-16.785-16.785-16.785zm-72.798 0 16.785 16.785 16.785-16.785-16.785-16.785zm-36.398 0 16.785 16.785 16.785-16.785-16.785-16.785zm-72.798 0 16.785 16.785 16.785-16.785-16.785-16.785zm-181.994 0 16.785 16.785 16.785-16.785-16.785-16.785zm218.393 0 16.785 16.785 16.785-16.785-16.785-16.785zm-254.791 0 16.785 16.785 16.785-16.785-16.785-16.785zm545.981 0 16.785 16.785 16.785-16.785-16.785-16.785zm-418.586-18.199 16.785 16.785 16.785-16.785-16.785-16.785zm254.791 0 16.785 16.785 16.785-16.785-16.785-16.785zm109.196 0 16.785 16.785 16.785-16.785-16.785-16.785zm-400.385 0 16.785 16.785 16.785-16.785-16.785-16.785zm-181.994 0 16.785 16.785 16.785-16.785-16.785-16.785zm400.386 0 16.785 16.785 16.785-16.785-16.785-16.785zm-145.595 0 16.785 16.785 16.785-16.785-16.785-16.785zm291.19 0 16.785 16.785 16.785-16.785-16.785-16.785zm-36.399 0 16.785 16.785 16.785-16.785-16.785-16.785zm-436.784 0 16.785 16.785 16.785-16.785-16.785-16.785zm-36.399 0 16.785 16.785 16.785-16.785-16.785-16.785zm618.778 0 16.785 16.785 16.785-16.785-16.785-16.785zm-327.588 0 16.785 16.785 16.785-16.785-16.785-16.785zm-36.399 0 16.785 16.785 16.785-16.785-16.785-16.785zm-145.595 0 16.785 16.785 16.785-16.785-16.785-16.785zm-36.399 0 16.785 16.785 16.785-16.785-16.785-16.785zm509.582 0 16.785 16.785 16.785-16.785-16.785-16.785zm-254.791 0 16.785 16.785 16.785-16.785-16.785-16.785zm72.798 0 16.785 16.785 16.785-16.785-16.785-16.785zm54.598-18.199 16.785 16.785 16.785-16.785-16.785-16.785zm-291.19 0 16.785 16.785 16.785-16.785-16.785-16.785zm-218.392 0 16.785 16.785 16.785-16.785-16.785-16.785zm254.791 0 16.785 16.785 16.785-16.785-16.785-16.785zm327.588 0 16.785 16.785 16.785-16.785-16.785-16.785zm72.798 0 16.785 16.785 16.785-16.785-16.785-16.785zm-545.981 0 16.785 16.785 16.785-16.785-16.785-16.785zm291.19 0 16.785 16.785 16.785-16.785-16.785-16.785zm-363.988 0 16.785 16.785 16.785-16.785-16.785-16.785zm509.582 0 16.785 16.785 16.785-16.785-16.785-16.785zm-72.797 0 16.785 16.785 16.785-16.785-16.785-16.785zm-36.399 0 16.785 16.785 16.785-16.785-16.785-16.785zm-72.797 0 16.785 16.785 16.785-16.785-16.785-16.785zm-36.399 0 16.785 16.785 16.785-16.785-16.785-16.785zm-145.595 0 16.785 16.785 16.785-16.785-16.785-16.785zm-36.398 0 16.785 16.785 16.785-16.785-16.785-16.785zm145.595 0 16.785 16.785 16.785-16.785-16.785-16.785zm-218.393 0 16.785 16.785 16.785-16.785-16.785-16.785zm545.981 0 16.785 16.785 16.785-16.785-16.785-16.785zm-90.997-18.2 16.785 16.785 16.785-16.785-16.785-16.785zm-291.19 0 16.785 16.785 16.785-16.785-16.785-16.785zm327.589.001 16.785 16.785 16.785-16.785-16.785-16.785zm-109.196 0 16.785 16.785 16.785-16.785-16.785-16.785zm-72.798 0 16.785 16.785 16.785-16.785-16.785-16.785zm-181.993-.001 16.785 16.785 16.785-16.785-16.785-16.785zm-181.994.001 16.785 16.785 16.785-16.785-16.785-16.785zm109.196-.001 16.785 16.785 16.785-16.785-16.785-16.785zm145.595 0 16.785 16.785 16.785-16.785-16.785-16.785zm218.392.001 16.785 16.785 16.785-16.785-16.785-16.785zm-400.385-.001 16.785 16.785 16.785-16.785-16.785-16.785zm545.98 0 16.785 16.785 16.785-16.785-16.785-16.785zm-291.189 0 16.785 16.785 16.785-16.785-16.785-16.785zm-181.994 0 16.785 16.785 16.785-16.785-16.785-16.785zm145.595 0 16.785 16.785 16.785-16.785-16.785-16.785zm109.196 0 16.785 16.785 16.785-16.785-16.785-16.785zm-363.987 0 16.785 16.785 16.785-16.785-16.785-16.785zm545.981 0 16.785 16.785 16.785-16.785-16.785-16.785zm-54.599-18.199 16.785 16.785 16.785-16.785-16.785-16.785zm-72.797 0 16.785 16.785 16.785-16.785-16.785-16.785zm-109.196 0 16.785 16.785 16.785-16.785-16.785-16.785zm-181.994 0 16.785 16.785 16.785-16.785-16.785-16.785zm-36.398 0 16.785 16.785 16.785-16.785-16.785-16.785zm145.595 0 16.785 16.785 16.785-16.785-16.785-16.785zm145.594 0 16.785 16.785 16.785-16.785-16.785-16.785zm-327.588 0 16.785 16.785 16.785-16.785-16.785-16.785zm-36.399 0 16.785 16.785 16.785-16.785-16.785-16.785zm181.994 0 16.785 16.785 16.785-16.785-16.785-16.785zm254.791 0 16.785 16.785 16.785-16.785-16.785-16.785zm-109.196 0 16.785 16.785 16.785-16.785-16.785-16.785zm-181.994 0 16.785 16.785 16.785-16.785-16.785-16.785zm-181.993 0 16.785 16.785 16.785-16.785-16.785-16.785zm291.189 0 16.785 16.785 16.785-16.785-16.785-16.785zm291.19 0 16.785 16.785 16.785-16.785-16.785-16.785zm-36.399 0 16.785 16.785 16.785-16.785-16.785-16.785zm-418.585-18.199 16.785 16.785 16.785-16.785-16.785-16.786-16.785 16.785zm363.987 0 16.785 16.785 16.785-16.785-16.785-16.785zm-36.399 0 16.785 16.785 16.785-16.785-16.785-16.785zm-72.797 0 16.785 16.785 16.785-16.785-16.785-16.785zm145.595 0 16.785 16.785 16.785-16.785-16.785-16.785zm-509.582 0 16.785 16.785 16.785-16.785-16.785-16.785zm400.386 0 16.785 16.785 16.785-16.785-16.785-16.785zm-145.595 0 16.785 16.785 16.785-16.785-16.785-16.785zm36.399 0 16.785 16.785 16.785-16.785-16.785-16.785zm-218.393 0 16.785 16.785 16.785-16.785-16.785-16.785zm-36.398 0 16.785 16.785 16.785-16.785-16.785-16.785zm181.993 0 16.785 16.785 16.785-16.785-16.785-16.785zm109.196 0 16.785 16.785 16.785-16.785-16.785-16.785zm-181.993 0 16.785 16.785 16.785-16.785-16.785-16.785zm400.386 0 16.785 16.785 16.785-16.785-16.785-16.785zm-363.988 0 16.785 16.785 16.785-16.785-16.785-16.785zm272.99-18.2 16.785 16.785 16.785-16.785-16.785-16.785zm72.798 0 16.785 16.785 16.785-16.785-16.785-16.785zm-145.595 0 16.785 16.785 16.785-16.785-16.785-16.785zm-109.196 0 16.785 16.785 16.785-16.785-16.785-16.785zm-181.994 0 16.785 16.785 16.786-16.785-16.785-16.785-16.785 16.785zm254.791 0 16.785 16.785 16.785-16.785-16.785-16.785zm-327.588 0 16.785 16.785 16.785-16.785-16.785-16.785zm109.196 0 16.785 16.785 16.785-16.785-16.785-16.785zm-72.797 0 16.785 16.785 16.785-16.785-16.785-16.785zm363.987 0 16.785 16.785 16.785-16.785-16.785-16.785zm-181.994 0 16.785 16.785 16.785-16.785-16.785-16.785zm72.798 0 16.785 16.785 16.785-16.785-16.785-16.785zm-109.196 0 16.785 16.785 16.785-16.785-16.785-16.785zm-36.399 0 16.785 16.785 16.785-16.785-16.785-16.785zm327.588 0 16.785 16.785 16.785-16.785-16.785-16.785zm-127.395-18.199 16.785 16.785 16.785-16.785-16.785-16.785zm-291.19 0 16.785 16.785 16.785-16.785-16.785-16.785zm363.987 0 16.785 16.785 16.785-16.785-16.785-16.785zm-36.398 0 16.785 16.785 16.785-16.785-16.785-16.785zm-145.595 0 16.785 16.785 16.785-16.785-16.785-16.785zm-218.392 0 16.785 16.785 16.785-16.785-16.785-16.785zm254.791 0 16.785 16.785 16.785-16.785-16.785-16.785zm-181.994 0 16.785 16.785 16.785-16.785-16.785-16.785zm218.392 0 16.785 16.785 16.785-16.785-16.785-16.785zm-181.993 0 16.785 16.785 16.785-16.785-16.785-16.785zm363.987 0 16.785 16.785 16.785-16.785-16.785-16.785zm-36.399 0 16.785 16.785 16.785-16.785-16.785-16.785zm-254.791 0 16.785 16.785 16.785-16.785-16.785-16.785zm-36.399 0 16.785 16.785 16.785-16.785-16.785-16.785zm236.592-18.199 16.785 16.785 16.785-16.785-16.785-16.785zm-363.987 0 16.785 16.785 16.785-16.785-16.785-16.785zm254.791 0 16.785 16.785 16.785-16.785-16.785-16.785zm72.797 0 16.785 16.785 16.785-16.785-16.785-16.785zm-36.399 0 16.785 16.785 16.785-16.785-16.785-16.785zm-254.79 0 16.785 16.785 16.785-16.785-16.785-16.785zm400.385-.001 16.785 16.785 16.785-16.785-16.785-16.785zm-254.791.001 16.785 16.785 16.785-16.785-16.785-16.785zm36.399-.001 16.785 16.785 16.785-16.785-16.785-16.785zm-109.196 0 16.785 16.785 16.785-16.785-16.785-16.785zm-36.399 0 16.785 16.785 16.785-16.785-16.785-16.785zm72.798 0 16.785 16.785 16.785-16.785-16.785-16.785zm254.791 0 16.785 16.785 16.785-16.785-16.785-16.785zm-54.598-18.199 16.785 16.785 16.785-16.785-16.785-16.785zm-72.798 0 16.785 16.785 16.785-16.785-16.785-16.785zm-36.399 0 16.785 16.785 16.785-16.785-16.784-16.785-16.785 16.785zm-218.392 0 16.785 16.785 16.786-16.785-16.786-16.785zm145.595 0 16.785 16.785 16.785-16.785-16.785-16.785zm145.595 0 16.785 16.785 16.785-16.785-16.785-16.785zm-181.994 0 16.785 16.785 16.785-16.785-16.784-16.785-16.785 16.785zm-36.398 0 16.785 16.785 16.785-16.785-16.785-16.785zm-36.399 0 16.785 16.785 16.785-16.785-16.785-16.785zm363.987 0 16.785 16.785 16.785-16.785-16.785-16.785zm-36.398 0 16.785 16.785 16.785-16.785-16.785-16.785zm-181.994 0 16.785 16.785 16.785-16.785-16.785-16.785zm54.598-18.199 16.785 16.785 16.785-16.785-16.785-16.785zm36.398 0 16.785 16.785 16.785-16.785-16.785-16.785zm36.399 0 16.785 16.785 16.785-16.785-16.785-16.785zm-181.993 0 16.785 16.785 16.785-16.785-16.785-16.785zm254.791 0 16.785 16.785 16.785-16.785-16.785-16.785zm-181.994 0 16.785 16.785 16.785-16.785-16.785-16.785zm-181.993 0 16.785 16.785 16.785-16.785-16.785-16.785zm72.797 0 16.785 16.785 16.785-16.785-16.785-16.785zm-36.399 0 16.786 16.785 16.785-16.785-16.785-16.785zm291.19 0 16.785 16.785 16.785-16.785-16.785-16.785zm-181.994 0 16.785 16.785 16.785-16.785-16.785-16.785zm127.396-18.199 16.785 16.785 16.785-16.785-16.785-16.785zm-72.798 0 16.785 16.785 16.785-16.785-16.785-16.785zm-109.196 0 16.785 16.785 16.785-16.785-16.785-16.785zm145.595 0 16.785 16.785 16.785-16.785-16.785-16.785zm109.196 0 16.785 16.785 16.785-16.785-16.785-16.785zm-181.993 0 16.785 16.785 16.785-16.785-16.785-16.785zm-145.595 0 16.785 16.785 16.785-16.785-16.785-16.786-16.785 16.785zm36.399 0 16.785 16.785 16.785-16.785-16.785-16.785zm72.797 0 16.785 16.785 16.785-16.785-16.785-16.785zm181.994 0 16.785 16.785 16.785-16.785-16.785-16.785zm-54.599-18.2 16.785 16.785 16.785-16.785-16.785-16.785zm-72.797 0 16.785 16.785 16.785-16.785-16.785-16.785zm-109.196 0 16.785 16.785 16.785-16.785-16.785-16.785zm72.797 0 16.785 16.785 16.785-16.785-16.785-16.785zm72.798 0 16.785 16.785 16.785-16.785-16.785-16.785zm-109.196 0 16.785 16.785 16.785-16.785-16.785-16.785zm-72.798 0 16.785 16.785 16.785-16.785-16.785-16.785zm254.791 0 16.785 16.785 16.785-16.785-16.785-16.785zm36.399 0 16.785 16.785 16.785-16.785-16.785-16.785zm-163.794-18.199 16.785 16.785 16.785-16.785-16.785-16.785zm72.797 0 16.785 16.785 16.785-16.785-16.785-16.785zm-109.196 0 16.785 16.785 16.785-16.785-16.785-16.785zm-72.797 0 16.785 16.785 16.785-16.785-16.785-16.785zm254.791 0 16.785 16.785 16.785-16.785-16.785-16.785zm-109.196 0 16.785 16.785 16.785-16.785-16.785-16.785zm-109.197 0 16.785 16.785 16.785-16.785-16.785-16.785zm181.994 0 16.785 16.785 16.785-16.785-16.785-16.785zm-127.396-18.199 16.785 16.785 16.785-16.785-16.785-16.785zm72.798 0 16.785 16.785 16.785-16.785-16.785-16.785zm-109.196-.001 16.785 16.785 16.785-16.785-16.785-16.785zm72.797 0 16.785 16.785 16.785-16.785-16.785-16.785zm-109.196 0 16.785 16.785 16.785-16.785-16.785-16.785zm218.392 0 16.785 16.785 16.785-16.785-16.785-16.785zm-36.398 0 16.785 16.785 16.785-16.785-16.785-16.785zm-127.396-18.199 16.785 16.785 16.785-16.785-16.785-16.785zm72.797 0 16.785 16.785 16.785-16.785-16.785-16.785zm-36.398 0 16.785 16.785 16.785-16.785-16.785-16.785zm-72.798 0 16.785 16.785 16.785-16.785-16.785-16.785zm181.994 0 16.785 16.785 16.785-16.785-16.785-16.785zm-36.399 0 16.785 16.785 16.785-16.785-16.785-16.785zm-54.598-18.199 16.785 16.785 16.785-16.785-16.785-16.785zm-72.797 0 16.785 16.785 16.785-16.785-16.785-16.785zm36.398 0 16.785 16.785 16.785-16.785-16.785-16.785zm109.197 0 16.785 16.785 16.785-16.785-16.785-16.785zm-36.399 0 16.785 16.785 16.785-16.785-16.785-16.785zm-54.598-18.199 16.785 16.785 16.785-16.785-16.785-16.785zm-36.399 0 16.785 16.785 16.785-16.785-16.785-16.785zm109.196-.001 16.785 16.785 16.785-16.785-16.785-16.785zm-36.398 0 16.785 16.785 16.785-16.785-16.785-16.785zm-54.599-18.199 16.785 16.785 16.785-16.785-16.785-16.785zm72.798 0 16.785 16.785 16.785-16.785-16.785-16.785zm-36.399 0 16.785 16.785 16.785-16.785-16.785-16.785zm18.2-18.199 16.785 16.785 16.785-16.785-16.785-16.785zm-36.399 0 16.785 16.785 16.785-16.785-16.785-16.785zm18.199-18.2 16.785 16.785 16.785-16.785-16.785-16.785z" fill="rgba(151,179,255,1)" id="dazCGk63U-U8lgKYUD187" data-selector="g[4]&gt;path[1]" /><path d="m70.684 377.256c-.917 0-1.812-.315-2.532-.903-.882-.721-1.415-1.784-1.464-2.922l-8.725-199.025c-.049-1.124.377-2.217 1.175-3.011l117.852-117.27c.761-.757 1.797-1.176 2.866-1.164 1.073.012 2.096.454 2.839 1.228l110.849 115.337c.644.67 1.034 1.542 1.104 2.469l12.49 164.315c.158 2.079-1.307 3.93-3.366 4.254l-232.466 36.644c-.208.033-.416.049-.623.049zm-4.652-201.436 8.452 192.787 224.398-35.372-12.101-159.202-107.033-111.366-113.715 113.153z" fill="rgba(3,100,251,1)" id="LqG9xHmx_nBKy3mexweWK" data-selector="g[4]&gt;path[2]" /><path d="m179.811 56.961-117.852 117.27 2.629 59.967 129.878 61.369 99.97-73.596-3.776-49.674z" fill="rgba(3,100,251,1)" id="n3Vl5RA46waBHIYW898Iz" data-selector="g[4]&gt;path[3]" /><path d="m194.466 299.567c-.581 0-1.165-.126-1.708-.383l-129.878-61.369c-1.342-.634-2.222-1.959-2.287-3.441l-2.629-59.967c-.049-1.124.377-2.217 1.175-3.011l117.852-117.27c.76-.757 1.793-1.186 2.866-1.164 1.073.012 2.096.454 2.839 1.228l110.849 115.337c.644.67 1.034 1.542 1.104 2.469l3.776 49.673c.104 1.375-.507 2.707-1.617 3.524l-99.969 73.596c-.699.515-1.533.779-2.372.779zm-125.988-67.955 125.539 59.318 96.262-70.867-3.499-46.031-107.033-111.366-113.715 113.153 2.446 55.792z" fill="rgba(3,100,251,1)" id="rzu4WvlAdN5wr2cOMWd9" data-selector="g[4]&gt;path[4]" /><path d="m194.466 295.567-100.565-45.143-8.292-171.177 175.452 10.642 10.808 148.688z" fill="rgba(222,240,255,1)" id="r0aiFp_YsZwDGySiFcvxc" data-selector="g[4]&gt;path[5]" /><path d="m194.465 299.567c-.555 0-1.114-.115-1.638-.351l-100.565-45.143c-1.373-.616-2.284-1.952-2.357-3.456l-8.293-171.178c-.055-1.135.376-2.24 1.184-3.039.809-.799 1.919-1.216 3.053-1.147l175.452 10.643c2 .121 3.602 1.704 3.747 3.703l10.809 148.688c.1 1.371-.511 2.696-1.618 3.511l-77.403 56.99c-.699.515-1.532.779-2.372.779zm-96.687-51.787 96.197 43.182 73.745-54.297-10.395-142.995-167.505-10.161z" fill="rgba(3,100,251,1)" id="h1cw8deqAJGbT1323vCQd" data-selector="g[4]&gt;path[6]" /><path d="m64.588 234.198 6.096 139.058 232.466-36.644-8.714-114.641-99.97 73.596z" fill="rgba(222,240,255,1)" id="W9N1gfO9glluuzMnWhoXD" data-selector="g[4]&gt;path[7]" /><path d="m70.684 377.256c-.917 0-1.812-.315-2.532-.903-.882-.721-1.415-1.784-1.464-2.922l-6.096-139.058c-.062-1.4.615-2.731 1.782-3.507s2.656-.884 3.923-.285l127.72 60.349 98.047-72.181c1.171-.862 2.718-1.021 4.039-.414 1.322.606 2.21 1.882 2.321 3.332l8.714 114.641c.158 2.079-1.307 3.93-3.366 4.254l-232.466 36.644c-.207.033-.416.049-.623.049zm-1.81-136.609 5.61 127.96 224.398-35.372-7.887-103.764-94.157 69.317c-1.184.872-2.75 1.023-4.08.396l-123.883-58.536z" fill="rgba(3,100,251,1)" id="k4ZWaj5IJgF8mQoPUnio" data-selector="g[4]&gt;path[8]" /><g fill="rgba(151,179,255,1)" id="QuatKbEq8y1rSjAp9MyS" data-selector="g[4]&gt;g[9]"><path d="m202.929 127.474c-.062 0-.124-.001-.186-.004l-72.441-3.31c-2.207-.101-3.914-1.972-3.813-4.178.101-2.207 1.97-3.915 4.178-3.813l72.441 3.31c2.207.101 3.914 1.972 3.813 4.178-.098 2.145-1.868 3.817-3.993 3.817z" fill="rgba(151,179,255,1)" id="wAR2gOqoX3ev8WnVcDpTP" data-selector="g[4]&gt;g[9]&gt;path[1]" /><path d="m240.795 162.175c-.031 0-.063 0-.095 0l-69.42-1.615c-2.208-.052-3.957-1.884-3.906-4.092.052-2.208 1.877-3.966 4.092-3.906l69.42 1.615c2.208.052 3.957 1.884 3.906 4.092-.051 2.177-1.832 3.907-3.997 3.907z" fill="rgba(151,179,255,1)" id="IUY2d62kLoIFTsZlINwha" data-selector="g[4]&gt;g[9]&gt;path[2]" /><path d="m242.671 195.716h-.029l-119.796-.843c-2.209-.016-3.987-1.819-3.972-4.028.016-2.209 1.802-3.973 4.028-3.972l119.796.843c2.209.016 3.987 1.819 3.972 4.028-.016 2.199-1.804 3.972-4 3.972z" fill="rgba(151,179,255,1)" id="hw503MtIiHrR6tPRF90mw" data-selector="g[4]&gt;g[9]&gt;path[3]" /><path d="m205.902 229.728h-81.05c-2.209 0-4-1.791-4-4s1.791-4 4-4h81.05c2.209 0 4 1.791 4 4s-1.791 4-4 4z" fill="rgba(151,179,255,1)" id="N9sWy1UgXFSb_u42QMlLJ" data-selector="g[4]&gt;g[9]&gt;path[4]" /></g></g><path d="m179.3 354.788c-97.819 0-177.401-79.582-177.401-177.401s79.582-177.401 177.401-177.401 177.401 79.582 177.401 177.401-79.582 177.401-177.401 177.401zm0-346.802c-93.408 0-169.401 75.993-169.401 169.401s75.993 169.401 169.401 169.401 169.401-75.993 169.401-169.401-75.993-169.401-169.401-169.401z" fill="rgba(3,100,251,1)" id="wwg-qJgWmehANbuxQLIO9" data-selector="path[5]" /></g></g><g transform="translate(57 37) rotate(0 55 55) scale(1 1)" opacity="1" data-asset-index="1"><g clip-path="url(#assetClipPath_g4HRVEQo)" transform="scale(1.0040252284157394 1.0040252284157394)" data-asset-index="1"><defs data-selector="defs[1]" /><circle cx="54.78" cy="54.78" fill="rgba(151,179,255,1)" r="50.78" id="T3Ffp832tWDf1UGpBlHsO" data-selector="circle[2]" /><g fill="rgba(3,100,251,1)" id="eYPaD5jZFcMLg8HPgtak" data-selector="g[3]"><path d="m54.78 109.559c-30.206 0-54.78-24.574-54.78-54.779s24.574-54.78 54.78-54.78 54.78 24.574 54.78 54.78-24.574 54.78-54.78 54.779zm0-101.559c-25.795 0-46.78 20.985-46.78 46.78s20.985 46.78 46.78 46.78 46.78-20.985 46.78-46.78-20.986-46.78-46.78-46.78z" fill="rgba(3,100,251,1)" id="lMgwTGvQIXJhA7tp3vOP" data-selector="g[3]&gt;path[1]" /><path d="m52.696 85.221c-2.09 0-4.105-.818-5.606-2.294l-28.066-27.581c-3.151-3.097-3.195-8.162-.099-11.313 3.098-3.152 8.163-3.196 11.313-.099l21.604 21.232 22.184-29.012c2.686-3.509 7.707-4.179 11.215-1.496 3.51 2.684 4.18 7.705 1.496 11.214l-27.685 36.208c-1.394 1.822-3.503 2.959-5.791 3.121-.188.013-.377.02-.565.02z" fill="rgba(3,100,251,1)" id="e-pdWlaQnuaOZnWt_itXh" data-selector="g[3]&gt;path[2]" /></g></g></g><g transform="translate(271 308) rotate(0 98 53.5) scale(1 1)" opacity="1" data-asset-index="2"><g clip-path="url(#assetClipPath_fYGzgokY)" transform="scale(1.0020142531415193 1.0020142531415193)" data-asset-index="2"><defs data-selector="defs[1]" /><path d="m41.406 102.649 18.983-35.173 18.481 16.843z" fill="rgba(3,100,251,1)" id="dMrKUNFUDxrk1nmBfCUj" data-selector="path[2]" /><path d="m41.407 106.649c-1.065 0-2.113-.425-2.885-1.229-1.205-1.253-1.461-3.142-.636-4.671l18.983-35.173c.585-1.083 1.636-1.837 2.85-2.043 1.213-.207 2.455.158 3.365.987l18.481 16.843c.979.892 1.453 2.211 1.265 3.522s-1.012 2.445-2.202 3.027l-37.464 18.33c-.56.274-1.161.407-1.757.407zm20.071-32.769-10.63 19.696 20.979-10.264z" fill="rgba(3,100,251,1)" id="sLjWO_D8K0rUUWaF3xxc7" data-selector="path[3]" /><path d="m4 31.778 30.615 23.787 6.791 47.084 25.723-25.659 31.595 25.424 92.882-98.414z" fill="rgba(151,179,255,1)" id="fR1YCdcPH5yNvZ7rntI3" data-selector="path[4]" /><path d="m41.406 106.649c-.423 0-.85-.067-1.264-.205-1.436-.478-2.478-1.726-2.694-3.224l-6.56-45.486-29.342-22.798c-1.265-.983-1.822-2.625-1.415-4.175s1.698-2.706 3.283-2.941l187.606-27.777c1.686-.248 3.345.596 4.133 2.107s.532 3.355-.638 4.595l-92.882 98.413c-1.433 1.518-3.792 1.679-5.417.371l-28.802-23.176-23.184 23.126c-.762.76-1.783 1.168-2.825 1.168zm25.724-33.659c.884 0 1.771.292 2.507.884l28.716 23.107 82.423-87.334-166.929 24.716 23.222 18.043c.818.635 1.357 1.563 1.505 2.588l5.652 39.191 20.077-20.027c.776-.774 1.799-1.168 2.826-1.168z" fill="rgba(3,100,251,1)" id="jviOxCoB4A0hDUeDC-z8N" data-selector="path[5]" /><path d="m80.628 52.656 110.978-48.656" fill="rgba(151,179,255,1)" id="bJ9jwl2IiD8W0H7i6F6Si" data-selector="path[6]" /><path d="m80.63 56.657c-1.54 0-3.008-.894-3.666-2.395-.887-2.023.034-4.383 2.057-5.27l110.979-48.655c2.024-.888 4.382.034 5.27 2.057.887 2.023-.034 4.383-2.057 5.27l-110.978 48.656c-.523.229-1.068.338-1.604.338z" fill="rgba(3,100,251,1)" id="KZDSIR_ntjMxJpr32BhhI" data-selector="path[7]" /></g></g></svg>