<svg xmlns="http://www.w3.org/2000/svg" fill="none" viewBox="0 0 1200 800" width="1200" height="800"><defs><clipPath id="assetClipPath_14C6gQEq"><path d="m0 0 h 206.747 a 0,0 0 0 1 0,0 v 268.634 a 0,0 0 0 1 -0,0 h -206.747 a 0,0 0 0 1 -0,-0 v -268.634 a 0,0 0 0 1 0,-0 z" id="path_Qp0tPr9v" fill="#ffffff" /></clipPath></defs><g transform="translate(393 129) rotate(0 220.5 286.5) scale(1 1)" opacity="1" data-asset-index="0"><g clip-path="url(#assetClipPath_14C6gQEq)" transform="scale(2.1330418337388206 2.1330418337388206)" data-asset-index="0"><defs data-selector="defs[1]" /><path d="m11.19 268.634c-.917 0-1.812-.315-2.532-.903-.882-.721-1.415-1.784-1.464-2.922l-7.19-164.001c-.049-1.124.377-2.217 1.175-3.011l97.112-96.632c.761-.757 1.796-1.174 2.866-1.165 1.073.012 2.096.454 2.839 1.228l91.342 95.04c.644.67 1.034 1.542 1.104 2.469l10.292 135.399c.158 2.078-1.307 3.93-3.366 4.254l-191.557 30.195c-.208.033-.416.049-.623.049zm-3.116-166.411 6.916 157.763 183.489-28.923-9.904-130.286-87.526-91.071z" fill="rgba(3,100,251,1)" id="nfJfWx8Yf_EeJgE_q18f0" data-selector="path[2]" /><path d="m101.113 4-97.113 96.633 2.166 49.414 107.023 50.57 82.377-60.645-3.111-40.932z" fill="rgba(3,100,251,1)" id="HcXDo_cqr2GZW5duT5RxY" data-selector="path[3]" /><path d="m113.189 204.617c-.581 0-1.164-.126-1.708-.383l-107.023-50.57c-1.342-.634-2.222-1.959-2.287-3.441l-2.167-49.415c-.049-1.124.377-2.217 1.175-3.011l97.112-96.632c.761-.757 1.805-1.171 2.866-1.165 1.073.012 2.096.454 2.839 1.228l91.342 95.04c.644.67 1.034 1.542 1.104 2.469l3.112 40.932c.104 1.375-.507 2.707-1.617 3.524l-82.377 60.645c-.699.515-1.533.779-2.372.779zm-103.132-57.155 102.683 48.519 78.67-57.915-2.835-37.289-87.526-91.071-92.975 92.516 1.983 45.239z" fill="rgba(3,100,251,1)" id="gCj8wId6PYpCpUVKobk_A" data-selector="path[4]" /><path d="m113.189 200.617-79.163-37.414-6.833-141.055 140.871 8.986 8.907 122.522z" fill="rgba(222,240,255,1)" id="loyCMvKXq323dZZH1BxUe" data-selector="path[5]" /><path d="m113.189 204.617c-.581 0-1.165-.126-1.709-.384l-79.163-37.414c-1.336-.631-2.215-1.947-2.286-3.423l-6.833-141.054c-.055-1.137.377-2.245 1.189-3.044.811-.799 1.924-1.215 3.061-1.142l140.872 8.985c1.995.127 3.59 1.708 3.735 3.702l8.906 122.522c.1 1.371-.511 2.696-1.618 3.511l-63.782 46.961c-.7.515-1.533.779-2.372.779zm-75.283-44.005 74.834 35.368 60.082-44.236-8.493-116.84-132.924-8.479z" fill="rgba(3,100,251,1)" id="EsLO1PrxFALY8gV2XjKpI" data-selector="path[6]" /><path d="m6.166 150.047 5.024 114.587 191.557-30.195-7.181-94.467-82.377 60.645z" fill="rgba(222,240,255,1)" id="Tkvi8V7OncNyXJNFywhjC" data-selector="path[7]" /><path d="m11.19 268.634c-.917 0-1.812-.315-2.532-.903-.882-.721-1.415-1.784-1.464-2.922l-5.023-114.587c-.062-1.4.615-2.731 1.782-3.506 1.167-.776 2.655-.884 3.923-.285l104.864 49.55 80.455-59.229c1.171-.862 2.717-1.021 4.04-.414 1.322.606 2.21 1.882 2.32 3.333l7.181 94.467c.158 2.078-1.307 3.93-3.366 4.254l-191.557 30.195c-.208.033-.416.049-.623.049zm-.737-112.137 4.537 103.489 183.489-28.923-6.354-83.59-76.564 56.365c-1.184.872-2.751 1.024-4.08.395z" fill="rgba(3,100,251,1)" id="pWw4R4GehPllxrA3liDxJ" data-selector="path[8]" /><path d="m153.832 134.691-95.26 4.321-2.574-48.744 94.775.09z" fill="rgba(151,179,255,1)" id="MhHNq94j9q0xwUxbyM3f-" data-selector="path[9]" /><path d="m58.569 143.012c-2.115 0-3.879-1.656-3.991-3.789l-2.574-48.744c-.058-1.097.338-2.169 1.094-2.965.755-.795 1.804-1.246 2.901-1.246h.004l94.775.091c2.101.002 3.842 1.629 3.987 3.725l3.059 44.332c.074 1.075-.288 2.134-1.005 2.938s-1.728 1.285-2.804 1.333l-95.26 4.321c-.062.003-.123.004-.184.004zm1.646-48.74 2.142 40.564 87.203-3.955-2.52-36.526z" fill="rgba(151,179,255,1)" id="XmGWpFmit5NGHUPtPn43R" data-selector="path[10]" /><g fill="rgba(3,100,251,1)" id="sw8f-n-Gs4uPNFfBHtqlE" data-selector="g[11]"><path d="m85.977 126.339c-.947 0-1.897-.334-2.659-1.014l-18.606-16.578c-1.649-1.47-1.795-3.998-.325-5.647s3.998-1.795 5.647-.325l18.606 16.578c1.649 1.47 1.795 3.998.325 5.647-.79.887-1.887 1.339-2.988 1.339z" fill="rgba(3,100,251,1)" id="KT4cU1vpV3WOFTcL4yrnJ" data-selector="g[11]&gt;path[1]" /><path d="m68.307 126.875c-.998 0-1.997-.371-2.773-1.118-1.592-1.532-1.641-4.064-.109-5.656l16.702-17.358c1.531-1.592 4.064-1.641 5.656-.109s1.641 4.064.109 5.656l-16.702 17.358c-.785.816-1.833 1.227-2.883 1.227z" fill="rgba(3,100,251,1)" id="qjDl_fLysDYPPuHbNNRBP" data-selector="g[11]&gt;path[2]" /><path d="m115.791 125.435c-.963 0-1.928-.345-2.695-1.045l-17.643-16.101c-1.632-1.489-1.748-4.019-.258-5.651 1.489-1.632 4.019-1.747 5.651-.258l17.643 16.101c1.632 1.489 1.748 4.019.258 5.651-.789.865-1.871 1.304-2.956 1.304z" fill="rgba(3,100,251,1)" id="MwcpYnXoO1YsYaZPjpOJ4" data-selector="g[11]&gt;path[3]" /><path d="m99.142 125.94c-.974 0-1.95-.353-2.72-1.068-1.619-1.503-1.714-4.034-.211-5.653l15.626-16.837c1.503-1.619 4.033-1.714 5.653-.211 1.619 1.503 1.714 4.034.211 5.653l-15.626 16.837c-.788.849-1.859 1.279-2.933 1.279z" fill="rgba(3,100,251,1)" id="XMQ0_wiJt5twDd4JDUgK2" data-selector="g[11]&gt;path[4]" /><path d="m143.92 124.583c-.978 0-1.958-.356-2.729-1.077l-16.76-15.652c-1.615-1.508-1.701-4.039-.193-5.653 1.508-1.615 4.039-1.701 5.654-.193l16.76 15.652c1.615 1.508 1.701 4.039.193 5.653-.788.843-1.855 1.27-2.924 1.27z" fill="rgba(3,100,251,1)" id="h8L_jPOgrrSAcQSfqT5ML" data-selector="g[11]&gt;path[5]" /><path d="m128.206 125.059c-.95 0-1.904-.337-2.667-1.021-1.646-1.474-1.784-4.003-.31-5.648l14.643-16.346c1.474-1.645 4.003-1.784 5.648-.31s1.784 4.003.31 5.648l-14.643 16.346c-.79.882-1.883 1.331-2.981 1.331z" fill="rgba(3,100,251,1)" id="iilzO4PaRIDUCldww20QK" data-selector="g[11]&gt;path[6]" /></g></g></g></svg>