<svg xmlns="http://www.w3.org/2000/svg" fill="none" viewBox="0 0 700 700" width="700" height="700"><defs><clipPath id="assetClipPath_IDy8eE2O"><path d="m0 0 h 112.7 a 0,0 0 0 1 0,0 v 131.7 a 0,0 0 0 1 -0,0 h -112.7 a 0,0 0 0 1 -0,-0 v -131.7 a 0,0 0 0 1 0,-0 z" id="path_f-CLiIsF" fill="#ffffff" /></clipPath><clipPath id="assetClipPath_-VP74KXp"><path d="m0 0 h 380.576 a 0,0 0 0 1 0,0 v 555.623 a 0,0 0 0 1 -0,0 h -380.576 a 0,0 0 0 1 -0,-0 v -555.623 a 0,0 0 0 1 0,-0 z" id="path_kFchJxRD" fill="#ffffff" /></clipPath><clipPath id="assetClipPath_hVIBSDaQ"><path d="m0 0 h 280.335 a 0,0 0 0 1 0,0 v 436.178 a 0,0 0 0 1 -0,0 h -280.335 a 0,0 0 0 1 -0,-0 v -436.178 a 0,0 0 0 1 0,-0 z" id="path_c2Nxdzr0" fill="#ffffff" /></clipPath><clipPath id="assetClipPath_DlPU5Iuk"><path d="m0 0 h 206.747 a 0,0 0 0 1 0,0 v 268.634 a 0,0 0 0 1 -0,0 h -206.747 a 0,0 0 0 1 -0,-0 v -268.634 a 0,0 0 0 1 0,-0 z" id="path_doZ5ih4l" fill="#ffffff" /></clipPath><clipPath id="assetClipPath_2q-Po8aH"><path d="m0 0 h 164.535 a 0,0 0 0 1 0,0 v 116.96 a 0,0 0 0 1 -0,0 h -164.535 a 0,0 0 0 1 -0,-0 v -116.96 a 0,0 0 0 1 0,-0 z" id="path_BaE_uh7h" fill="#ffffff" /></clipPath></defs><g transform="translate(470 462) rotate(0 56.5 66) scale(1 1)" opacity="1" data-asset-index="0"><g clip-path="url(#assetClipPath_IDy8eE2O)" transform="scale(1.002661934338953 1.002661934338953)" data-asset-index="0"><defs data-selector="defs[1]" /><path d="m48.3 127.7 23.7-1.9 32-46.2c2.1-2.9 2-6.8 0-9.7l-44.3-54.5-20.2 1.4 42.6 60.3-33.8 50.5z" fill="rgba(3,100,251,1)" id="UrU0A0IksF0mWsVb5mhiH" data-selector="path[2]" /><path d="m48.3 131.7c-1.4 0-2.7-.7-3.4-2-.8-1.3-.7-3 .1-4.3l32.3-48.3-41-58c-.8-1.2-1-2.7-.3-4s1.9-2.2 3.3-2.3l20.2-1.4c1.3 0 2.6.5 3.4 1.5l44.2 54.5s0 0 .1.1c3.1 4.3 3.2 10 0 14.4l-32 46.1c-.7 1-1.8 1.6-3 1.7l-23.7 1.9c-.1 0-.2 0-.3 0zm-1.4-111.4 38.5 54.5c1 1.4 1 3.2 0 4.5l-29.2 43.7 13.5-1.1 31-44.6c1.1-1.5 1.1-3.5 0-4.9l-42.8-52.8-11 .8z" fill="rgba(3,100,251,1)" id="SoESr7BrJdMysypmPhGO" data-selector="path[3]" /><path d="m45.4 126.4-40.1-54.7c-1.7-2.3-1.7-5.4-.1-7.7l31.5-45.6c1.4-2 4.4-2.1 5.9-.1l39.5 52.2c2.3 3 2.4 7.2.2 10.3l-31.5 45.5c-1.3 1.9-4.1 1.9-5.4 0z" fill="rgba(222,240,255,1)" id="TTX30RlwvrBqjl9eDM2Z4" data-selector="path[4]" /><g fill="rgba(3,100,251,1)" id="NBXCRZfXvIc7Qo4o1AUSJ" data-selector="g[5]"><path d="m48.1 131.7c-2.3 0-4.5-1.1-5.9-3l-40.1-54.6c-2.7-3.7-2.8-8.6-.2-12.4l31.5-45.6c1.4-2 3.7-3.2 6.1-3.3 2.4 0 4.8 1.1 6.2 3l39.5 52.2c3.3 4.4 3.5 10.4.3 15l-31.5 45.5c-1.3 1.9-3.6 3.1-5.9 3.2h-.1zm-8.4-110.6-31.2 45.1c-.6.9-.6 2.2 0 3.1l39.6 53.9 30.9-44.7c1.2-1.7 1.1-3.9-.1-5.6z" fill="rgba(3,100,251,1)" id="K4lNyTbAMroP9pOFfWDVZ" data-selector="g[5]&gt;path[1]" /><path d="m50.2 72.7c1.7-3.2 2.1-7.9-1-12.4-2.1-3.1-5.7-3.1-7.4.2-1.4 2.5-2.1 7-.6 11.2l-5.7 8.6 1.5 2.3 5.5-8.3c2.7 3.1 6.3 1 7.7-1.5z" fill="rgba(3,100,251,1)" id="vwdf1ImvPXJ-02ZjtmuqY" data-selector="g[5]&gt;path[2]" /><path d="m37 86.5c-1.3 0-2.6-.7-3.3-1.8l-1.5-2.3c-.9-1.3-.9-3.1 0-4.4l4.7-7.1c-1.1-4.8-.2-9.6 1.4-12.5 1.5-2.7 4-4.4 6.8-4.5 2.9-.1 5.6 1.4 7.4 4 4.1 6.1 3.3 12.5 1.2 16.5-1.5 2.8-4.3 4.8-7.2 5.2-.9.1-1.9 0-2.7-.2l-3.4 5.2c-.7 1.1-2 1.8-3.3 1.8zm8.2-15.3c.1.1.2.2.3.3 0 0 .1.1.2.2.2 0 .7-.5 1-.9.5-.9 1.9-4.3-.7-8.3-.2-.3-.3-.4-.4-.5 0 0-.1.2-.2.3-.7 1.3-1.5 4.7-.3 7.9.1.3.2.7.2 1z" fill="rgba(3,100,251,1)" id="tZeiJjTlUn1X5_Y1f7wHs" data-selector="g[5]&gt;path[3]" /></g><path d="m96.6 10.6c-12.6-11.1-31.1-7.8-43 6.8-.7.9-1.4 1.8-2.1 2.8 0 0 0 3.2 2.2 6.2 2 2.7 7.5 6.8 7.5 6.8.6-1.1 1.3-2.1 2.1-3 7.2-9 16.5-14.3 23.8-7.1 7.8 7.8 8.4 23.1.4 33.8-.9 1.2-1.8 2.2-2.7 3.1 0 0-.8 5.6 3.6 10.4 4.6 5 8.1 3.5 8.1 3.5 1-1.1 1.9-2.3 2.8-3.5 14.2-19.8 11.9-47-2.5-59.7z" fill="rgba(151,179,255,1)" id="VRiCPvVE6ybfeG5eU8Q48" data-selector="path[6]" /><path d="m94.9 78.1c-2.4 0-5.9-.9-9.6-5-5.6-6.1-4.6-13.4-4.6-13.7.1-.9.5-1.7 1.2-2.3.8-.8 1.6-1.7 2.3-2.6 6.6-8.9 6.6-22 0-28.6-1.6-1.6-3.3-2.3-5.2-2.2-3.7.2-8.3 3.5-12.7 8.9-.6.8-1.2 1.7-1.8 2.6-.6 1-1.6 1.7-2.7 1.9s-2.3 0-3.2-.7c-.6-.5-6-4.5-8.3-7.6-3.1-4-3-8.2-3-8.7 0-.8.3-1.5.7-2.2.7-1 1.5-2 2.3-3 7.2-8.6 16.8-14 26.5-14.8 8.2-.7 16.2 2 22.5 7.5 16.5 14.6 17.9 44.4 3.1 65.1-1 1.3-2 2.6-3 3.8-.4.4-.8.8-1.4 1-.3.1-1.4.6-3.1.6zm-6.2-16.5c0 1.4.6 3.8 2.6 6.1 1.4 1.5 2.5 2.1 3.1 2.3.5-.6 1-1.3 1.5-1.9 12.5-17.5 11.7-42.4-1.9-54.4-4.7-4.1-10.4-6-16.5-5.5-7.5.6-15.1 4.9-20.8 11.9-.4.4-.7.9-1 1.3.2.7.5 1.7 1.2 2.7.7.9 2.1 2.2 3.5 3.4 4.2-5.1 10.6-11.2 18.2-11.7 4.2-.2 8 1.3 11.2 4.5 9.5 9.4 9.8 26.9.8 39-.6.9-1.3 1.7-2 2.4z" fill="rgba(3,100,251,1)" id="TQn2BPQUXMalPXoAH6JSV" data-selector="path[7]" /></g></g><g transform="translate(197 91) rotate(0 190.5 278) scale(1 1)" opacity="1" data-asset-index="1"><g clip-path="url(#assetClipPath_-VP74KXp)" transform="scale(1.0011141007315227 1.0011141007315227)" data-asset-index="1"><defs data-selector="defs[1]" /><path d="m222.384 551.126-166.431-33.63c-7.67-1.55-15.002-4.44-21.669-8.537-10.001-6.146-23.025-14.462-23.025-14.462 13.978-45.805 95.555-353.478 130.474-456.254 26.799-.851 211.234-30.074 211.234-30.074 2.275 2.184 12.821 14.15 19.526 21.801 3.552 4.053 4.894 9.584 3.597 14.815l-116.308 481.341c-4.366 16.84-21.236 28.037-37.398 25z" fill="rgba(151,179,255,1)" id="bVI1bFZTvmltxbnDv4wJ" data-selector="path[2]" /><path d="m227.752 555.624c-2.03 0-4.07-.184-6.107-.567-.018-.003-.036-.007-.053-.01l-166.431-33.63c-8.152-1.647-15.88-4.692-22.971-9.05-9.915-6.094-22.953-14.415-23.083-14.499-1.513-.966-2.197-2.822-1.673-4.539 4.359-14.283 15.435-54.56 29.458-105.553 30.673-111.54 77.027-280.1 101.055-350.82.536-1.578 1.995-2.658 3.66-2.711 26.244-.833 208.893-29.735 210.735-30.026 1.237-.196 2.493.198 3.396 1.065 2.294 2.202 12.014 13.207 19.765 22.051 4.411 5.033 6.083 11.917 4.471 18.414l-116.302 481.318c-4.353 16.794-19.722 28.559-35.919 28.559zm-4.601-8.424c14.219 2.655 28.914-7.242 32.76-22.077l116.292-481.277c.987-3.981-.031-8.173-2.717-11.239-8.777-10.016-15.095-17.112-17.946-20.162-20.647 3.262-174.089 27.402-206.885 29.649-24.188 71.938-69.766 237.682-100.05 347.804-13.184 47.943-23.766 86.424-28.643 102.851 4.291 2.727 13.194 8.363 20.417 12.803 6.287 3.864 13.14 6.564 20.367 8.024z" fill="rgba(3,100,251,1)" id="CypyMqxrzRlQXkn6Hq9j2" data-selector="path[3]" /><path d="m204.911 534.105-187.897-37.106c-10.14-2.002-15.421-13.737-11.947-26.202l115.89-415.911c3.091-11.094 13.958-21.274 24.418-22.789l192.042-27.819c13.666-1.98 22.346 6.807 19.165 19.699l-120.438 488.188c-3.646 14.779-17.735 24.605-31.233 21.939z" fill="rgba(222,240,255,1)" id="rPQCY4Groj4BE1YWccAjV" data-selector="path[4]" /><g fill="rgba(3,100,251,1)" id="kcrwUI9zmK-qiXd5XFsmL" data-selector="g[5]"><path d="m209.395 538.542c-1.748 0-3.505-.167-5.259-.513l-187.897-37.106c-5.218-1.031-9.696-4.204-12.611-8.936-3.771-6.123-4.651-14.238-2.415-22.264l115.891-415.91c3.527-12.658 15.694-23.936 27.698-25.675l192.042-27.818c8.102-1.174 15.311.979 19.778 5.907 4.288 4.731 5.653 11.375 3.844 18.709l-120.438 488.188c-3.685 14.936-16.792 25.419-30.633 25.419zm-3.709-8.362c11.509 2.273 23.433-6.238 26.575-18.973l120.438-488.188c1.152-4.668.44-8.723-2.004-11.419-2.65-2.923-7.28-4.149-12.704-3.363l-192.042 27.819c-8.807 1.276-18.488 10.391-21.138 19.904l-115.892 415.911c-1.64 5.886-1.086 11.689 1.52 15.921 1.226 1.99 3.495 4.522 7.349 5.282l187.897 37.106z" fill="rgba(3,100,251,1)" id="ba2K5eJSis16bakYyrpiY" data-selector="g[5]&gt;path[1]" /><path d="m163.593 507.961c-.236 0-.476-.021-.717-.065l-86.905-15.726c-2.174-.393-3.617-2.474-3.224-4.648.394-2.174 2.475-3.617 4.648-3.224l86.905 15.726c2.174.393 3.617 2.474 3.224 4.648-.35 1.933-2.034 3.289-3.931 3.289z" fill="rgba(3,100,251,1)" id="c0KJUhmxBiSRInIhUuZb" data-selector="g[5]&gt;path[2]" /><path d="m245.843 43.953-35.854 4.62 2.751-10.331 35.867-4.859z" fill="rgba(3,100,251,1)" id="qWotERFBluzdTO_yamQzG" data-selector="g[5]&gt;path[3]" /><path d="m209.988 52.573c-1.144 0-2.244-.491-3.009-1.365-.878-1.003-1.199-2.377-.856-3.665l2.751-10.331c.416-1.56 1.728-2.717 3.328-2.934l35.867-4.86c1.324-.179 2.647.313 3.531 1.312.885.999 1.213 2.373.875 3.664l-2.764 10.571c-.413 1.578-1.741 2.747-3.359 2.955l-35.854 4.62c-.171.022-.342.033-.512.033zm35.855-8.62h.01zm-29.924-2.105-.531 1.996 27.268-3.513.571-2.183-27.307 3.7z" fill="rgba(3,100,251,1)" id="coUdSaDtVrdXwMzsnYvxH" data-selector="g[5]&gt;path[4]" /></g></g></g><g transform="translate(242 136) rotate(0 140 218.5) scale(1 1)" opacity="1" data-asset-index="2"><g clip-path="url(#assetClipPath_hVIBSDaQ)" transform="scale(0.9988050011593274 0.9988050011593274)" data-asset-index="2"><defs data-selector="defs[1]">
    <clipPath id="clippath" data-selector="defs[1]&gt;clippath[1]">
      <path d="M213.918,139.709c-9.461,36.866-45.353,66.096-78.543,65.243-31.544-.811-48.867-28.756-40.1-62.381,8.746-33.548,40.797-62.496,73.019-64.831,33.896-2.456,55.062,25.198,45.625,61.97Z" data-selector="defs[1]&gt;clippath[1]&gt;path[1]" fill="none" />
    </clipPath>
  </defs>
  
  <g id="Upload_phone_verification_screen" data-selector="g[2]">
    <g id="u2G-Nu2VYgRfetcXsvM6x" data-selector="g[2]&gt;g[1]">
      <path d="M128.107,35.212c-3.26,12.056-15.139,22.724-26.361,23.776-11.05,1.036-17.252-7.673-14.016-19.402,3.225-11.691,14.686-22.227,25.76-23.586,11.246-1.38,17.867,7.196,14.618,19.212Z" fill="rgba(151,179,255,1)" id="ldBzb3STedMINt7otSLdG" data-selector="g[2]&gt;g[1]&gt;path[1]" />
      <g id="NpDuoP93BF1qo6z_T0ExG" data-selector="g[2]&gt;g[1]&gt;g[2]">
        <g id="qIkEiEnvd_rmUaVnxIt5i" data-selector="g[2]&gt;g[1]&gt;g[2]&gt;g[1]">
          <line x1="238.069" y1="8.509" x2="276.335" y2="4" id="Vhasf6BCLte_wS9c5ZPM_" data-selector="g[2]&gt;g[1]&gt;g[2]&gt;g[1]&gt;line[1]" fill="rgba(222,240,255,1)" />
          <path d="M238.064,12.509c-2,0-3.728-1.497-3.968-3.532-.259-2.194,1.31-4.182,3.504-4.441L275.867.028c2.195-.259,4.182,1.311,4.44,3.504.259,2.194-1.31,4.182-3.504,4.441l-38.266,4.509c-.159.019-.317.028-.473.028Z" fill="rgba(151,179,255,1)" id="ekJpOnp_LhUC-PUhXmv_" data-selector="g[2]&gt;g[1]&gt;g[2]&gt;g[1]&gt;path[2]" />
        </g>
        <g id="i5AWsMR2KHdIecfrdDr03" data-selector="g[2]&gt;g[1]&gt;g[2]&gt;g[2]">
          <line x1="234.144" y1="23.833" x2="272.398" y2="19.689" id="yPLu8MFxjqYV8AIW-o2X6" data-selector="g[2]&gt;g[1]&gt;g[2]&gt;g[2]&gt;line[1]" fill="rgba(222,240,255,1)" />
          <path d="M234.139,27.834c-2.016,0-3.75-1.52-3.972-3.57-.238-2.196,1.35-4.17,3.546-4.407l38.254-4.144c2.199-.238,4.17,1.35,4.408,3.546.238,2.196-1.35,4.17-3.546,4.407l-38.254,4.144c-.146.016-.292.024-.436.024Z" fill="rgba(151,179,255,1)" id="ho0_AmDFbakSqrNMIF1g0" data-selector="g[2]&gt;g[1]&gt;g[2]&gt;g[2]&gt;path[2]" />
        </g>
        <g id="kYQoYnEAbdqggXFrLHJnS" data-selector="g[2]&gt;g[1]&gt;g[2]&gt;g[3]">
          <line x1="230.202" y1="39.224" x2="268.443" y2="35.448" id="aRIrkAmpTY-6UdGP1OVSi" data-selector="g[2]&gt;g[1]&gt;g[2]&gt;g[3]&gt;line[1]" fill="rgba(222,240,255,1)" />
          <path d="M230.197,43.224c-2.032,0-3.772-1.542-3.976-3.607-.217-2.198,1.389-4.157,3.588-4.374l38.242-3.776c2.194-.217,4.157,1.389,4.374,3.588.217,2.198-1.389,4.157-3.588,4.374l-38.242,3.776c-.134.013-.266.02-.398.02Z" fill="rgba(151,179,255,1)" id="GApPm8imOz09SV0LcmK4S" data-selector="g[2]&gt;g[1]&gt;g[2]&gt;g[3]&gt;path[2]" />
        </g>
      </g>
    </g>
    <g id="qqaxYaOCrHUmyuYEzik_1" data-selector="g[2]&gt;g[2]">
      <path d="M147.651,432.016l-135.388-22.126c-6.326-1.034-9.73-8.266-7.656-16.147l7.616-28.936c2.053-7.8,8.814-13.487,15.155-12.712l135.599,16.573c7.641.934,12.202,8.728,10.116,17.419l-7.741,32.262c-2.11,8.791-10.067,14.913-17.702,13.666Z" fill="rgba(151,179,255,1)" id="VSS_PqkPLDzUUICwfisHz" data-selector="g[2]&gt;g[2]&gt;path[1]" />
      <path d="M149.614,436.175c-.869,0-1.739-.069-2.608-.211l-135.387-22.126c-3.671-.6-6.849-2.712-8.949-5.948-2.677-4.125-3.38-9.652-1.929-15.165l7.616-28.936c2.581-9.805,11.147-16.686,19.509-15.664l135.599,16.573c4.479.547,8.371,2.903,10.961,6.633,2.987,4.302,3.92,10.021,2.56,15.69l-7.741,32.262c-2.354,9.81-10.83,16.89-19.629,16.891ZM26.189,356.024c-4.143,0-8.649,4.297-10.098,9.802l-7.616,28.936c-.865,3.289-.528,6.568.903,8.773.882,1.359,2.07,2.17,3.529,2.408l135.388,22.126c5.532.904,11.565-3.973,13.167-10.652l7.741-32.262c.829-3.454.336-6.829-1.352-9.261-.899-1.296-2.56-2.912-5.36-3.254l-135.599-16.573c-.233-.029-.468-.042-.704-.042Z" fill="rgba(3,100,251,1)" id="J5dCOwq_scvbWIJSRndpg" data-selector="g[2]&gt;g[2]&gt;path[2]" />
    </g>
    <path d="M35.282,398.092c-2.229-.343-3.945-1.203-5.15-2.578-1.201-1.368-1.904-3.155-2.111-5.358-.207-2.196.087-4.713.878-7.551.598-2.144,1.362-4.038,2.296-5.683.932-1.644,2.002-3.013,3.209-4.109,1.208-1.096,2.533-1.89,3.975-2.38,1.445-.491,2.975-.637,4.591-.436,1.067.133,2.094.439,3.082.92.989.482,1.853,1.196,2.593,2.141.251.326.373.701.367,1.128-.007.427-.106.848-.299,1.265-.193.416-.438.766-.735,1.048-.297.282-.615.442-.954.478-.339.036-.663-.113-.97-.448-.576-.662-1.202-1.17-1.879-1.524-.676-.353-1.471-.589-2.387-.707-1.408-.181-2.697.044-3.871.672-1.172.629-2.196,1.626-3.073,2.994-.877,1.368-1.603,3.089-2.179,5.165-.876,3.159-.988,5.646-.331,7.46.658,1.821,2.089,2.898,4.299,3.228.764.114,1.567.126,2.411.034.844-.091,1.692-.264,2.543-.519l-1.333,2.127,2.276-8.331-3.163-.448c-.478-.068-.799-.288-.964-.661-.165-.372-.169-.843-.013-1.411.163-.594.416-1.028.758-1.302.342-.274.752-.379,1.23-.313l4.75.655c.482.066.806.293.972.68.165.387.16.907-.017,1.558l-2.591,9.528c-.157.578-.372,1.05-.643,1.419-.272.369-.617.618-1.034.745-.965.29-2.033.489-3.205.595-1.169.107-2.28.079-3.331-.083ZM53.546,400.905c-1.642-.253-2.941-.881-3.9-1.884-.956-.999-1.548-2.298-1.777-3.895-.229-1.594-.066-3.413.488-5.458.539-1.989,1.316-3.686,2.333-5.09,1.017-1.404,2.182-2.457,3.498-3.16,1.317-.703,2.675-.963,4.075-.776,1.027.137,1.894.483,2.598,1.04.705.558,1.24,1.298,1.604,2.221.364.926.541,2.011.532,3.259-.01,1.249-.215,2.631-.617,4.145-.127.479-.349.826-.667,1.043-.318.217-.706.291-1.166.225l-9.528-1.378.765-2.838,8.328,1.18-.637.528c.324-1.217.461-2.254.411-3.111-.05-.855-.27-1.535-.66-2.039-.389-.504-.96-.807-1.711-.909-.829-.113-1.603.046-2.32.478-.718.432-1.354,1.092-1.908,1.981-.555.889-1.006,1.977-1.353,3.264l-.074.276c-.581,2.158-.638,3.827-.169,5.009.47,1.184,1.446,1.888,2.929,2.11.515.077,1.119.078,1.81.002.692-.076,1.384-.284,2.076-.624.504-.257.911-.342,1.22-.255.309.087.523.279.643.574.119.295.147.64.085,1.033-.063.393-.222.779-.479,1.157-.257.378-.604.687-1.042.926-.856.481-1.775.792-2.757.933-.98.141-1.856.152-2.63.033ZM69.336,403.336c-1.328-.204-2.354-.672-3.083-1.401-.727-.727-1.152-1.694-1.276-2.9-.124-1.204.037-2.649.481-4.335l2.247-8.518-1.571-.216c-.482-.066-.81-.282-.983-.65-.173-.366-.182-.841-.028-1.423.161-.608.414-1.053.759-1.336.344-.282.758-.391,1.24-.327l1.57.21.953-3.612c.216-.819.546-1.418.99-1.798.444-.38.969-.531,1.576-.454s1.017.349,1.231.813c.213.466.212,1.11-.003,1.931l-.951,3.627,3.24.432c.491.065.828.276,1.01.633.183.357.194.843.034,1.458-.153.589-.408,1.033-.761,1.332-.354.299-.776.414-1.267.346l-3.242-.445-2.169,8.27c-.338,1.289-.378,2.289-.12,2.998.259.71.868,1.137,1.829,1.281.348.052.666.058.953.016.287-.041.537-.06.75-.056.253.01.432.142.537.397.104.255.065.734-.118,1.439-.141.543-.333,1.013-.576,1.413-.243.4-.561.655-.952.764-.295.067-.67.115-1.126.144-.455.028-.846.018-1.173-.033ZM93.163,407.006c-2.18-.336-3.923-1.25-5.231-2.739-1.302-1.483-2.109-3.405-2.422-5.767-.312-2.353-.084-5.023.682-8.011.577-2.25,1.347-4.239,2.31-5.971.963-1.73,2.075-3.176,3.338-4.338,1.263-1.162,2.642-2.006,4.139-2.529,1.499-.524,3.067-.685,4.708-.481,2.202.274,3.971,1.119,5.305,2.539,1.338,1.426,2.189,3.311,2.548,5.657.36,2.354.163,5.056-.593,8.103-.571,2.305-1.351,4.353-2.337,6.142-.987,1.79-2.132,3.283-3.433,4.477-1.301,1.193-2.716,2.041-4.246,2.546-1.527.503-3.117.627-4.769.372ZM94.315,402.436c1.393.208,2.685-.03,3.874-.716,1.19-.687,2.248-1.782,3.173-3.285.925-1.503,1.66-3.347,2.205-5.531.826-3.31.887-5.947.185-7.911-.699-1.957-2.099-3.068-4.196-3.338-1.365-.176-2.636.075-3.815.749-1.178.674-2.221,1.743-3.128,3.208-.909,1.466-1.64,3.286-2.194,5.464-.827,3.247-.904,5.873-.228,7.876.679,2.011,2.052,3.174,4.125,3.483ZM114.833,410.255c-.692-.106-1.16-.436-1.407-.987-.246-.551-.262-1.264-.048-2.14l5.549-22.678-6.441-.831c-.569-.073-.962-.33-1.179-.77-.218-.439-.241-1.003-.071-1.691.177-.714.469-1.237.878-1.568.408-.331.896-.462,1.465-.391l17.273,2.154c.588.073,1.001.319,1.238.739.237.419.269.994.095,1.723-.168.702-.466,1.236-.892,1.6-.426.365-.934.509-1.522.434l-6.573-.848-5.535,22.775c-.214.88-.561,1.541-1.039,1.982-.479.441-1.076.608-1.791.498ZM130.155,412.613c-.712-.11-1.196-.445-1.455-1.006-.258-.56-.28-1.285-.068-2.174l5.921-24.797c.215-.9.571-1.558,1.07-1.973.498-.415,1.101-.579,1.81-.491l8.332,1.039c2.701.337,4.602,1.425,5.695,3.268,1.098,1.851,1.302,4.273.61,7.265-.694,3-1.982,5.245-3.86,6.728-1.875,1.481-4.172,2.027-6.881,1.641l-6.185-.882-2.102,8.868c-.212.893-.562,1.564-1.051,2.012-.488.447-1.101.615-1.837.502ZM136.171,396.905l5.482.759c1.583.219,2.888-.052,3.911-.816,1.024-.764,1.734-1.994,2.129-3.688.394-1.691.281-3.02-.337-3.984-.617-.963-1.717-1.545-3.298-1.749l-5.474-.705-2.414,10.183Z" fill="rgba(222,240,255,1)" id="DzdZPCk-dbiTuEJrR7Evv" data-selector="g[2]&gt;path[3]" />
    <g id="Df3ykqw0sOFXsLLVkDi2Q" data-selector="g[2]&gt;g[4]">
      <g id="m3iswgnURYvt-v7DZki11" data-selector="g[2]&gt;g[4]&gt;g[1]">
        <polygon points="42.536 314.369 13.443 311.657 31.168 247.929 60.403 249.247 42.536 314.369" fill="rgba(151,179,255,1)" id="ss_r1jjcKaIpoj_jGrbd" data-selector="g[2]&gt;g[4]&gt;g[1]&gt;polygon[1]" />
        <path d="M42.538,318.369c-.124,0-.249-.006-.374-.018l-29.093-2.712c-1.18-.11-2.25-.738-2.923-1.713s-.877-2.199-.56-3.341l17.726-63.728c.5-1.796,2.172-3.012,4.034-2.924l29.235,1.318c1.215.055,2.339.659,3.054,1.643.715.983.945,2.239.623,3.412l-17.867,65.122c-.48,1.75-2.07,2.942-3.855,2.942ZM18.579,308.118l20.987,1.957,15.655-57.057-21.052-.949-15.59,56.05Z" fill="rgba(151,179,255,1)" id="X8Jw7-33UJwbovOjzoMR" data-selector="g[2]&gt;g[4]&gt;g[1]&gt;path[2]" />
      </g>
      <g id="R5sNJM9je99R7CwERtUMG" data-selector="g[2]&gt;g[4]&gt;g[2]">
        <polygon points="91.547 318.938 60.359 316.03 78.308 250.054 109.63 251.466 91.547 318.938" fill="rgba(151,179,255,1)" id="Q0L7aVUqvP-khvu_aHcUR" data-selector="g[2]&gt;g[4]&gt;g[2]&gt;polygon[1]" />
        <path d="M91.55,322.938c-.124,0-.249-.006-.374-.018l-31.189-2.907c-1.176-.11-2.243-.733-2.916-1.704-.673-.971-.882-2.189-.572-3.329l17.949-65.977c.491-1.806,2.172-3.035,4.04-2.946l31.323,1.412c1.211.054,2.331.655,3.047,1.633.716.978.95,2.228.636,3.398l-18.083,67.472c-.472,1.761-2.068,2.965-3.861,2.965ZM65.467,312.489l23.091,2.152,15.921-59.404-23.152-1.044-15.86,58.295Z" fill="rgba(151,179,255,1)" id="kjojgv3pZJQ-6OGRDL97s" data-selector="g[2]&gt;g[4]&gt;g[2]&gt;path[2]" />
      </g>
      <g id="Ap7BvA-ItRhOmh4Obl3L" data-selector="g[2]&gt;g[4]&gt;g[3]">
        <polygon points="144.197 323.846 110.678 320.721 128.837 252.332 162.48 253.848 144.197 323.846" fill="rgba(151,179,255,1)" id="H6ZmG-PV9c9mfSiG6zHq" data-selector="g[2]&gt;g[4]&gt;g[3]&gt;polygon[1]" />
        <path d="M144.2,327.846c-.124,0-.249-.006-.374-.018l-33.52-3.125c-1.172-.109-2.236-.729-2.909-1.694-.673-.965-.887-2.178-.585-3.315l18.159-68.39c.483-1.818,2.167-3.059,4.046-2.969l33.643,1.517c1.206.054,2.323.651,3.04,1.623.716.972.955,2.216.65,3.384l-18.282,69.998c-.463,1.774-2.065,2.99-3.867,2.99ZM115.757,317.178l25.429,2.371,16.174-61.927-25.484-1.149-16.119,60.705Z" fill="rgba(151,179,255,1)" id="oaWq_IF4tPoDQoCthXiDn" data-selector="g[2]&gt;g[4]&gt;g[3]&gt;path[2]" />
      </g>
      <g id="udckjFTONsRN1NkHDK10z" data-selector="g[2]&gt;g[4]&gt;g[4]">
        <polygon points="200.907 329.133 164.784 325.765 183.136 254.78 219.367 256.413 200.907 329.133" fill="rgba(151,179,255,1)" id="dAC9bnXSx9VPS7chstg30" data-selector="g[2]&gt;g[4]&gt;g[4]&gt;polygon[1]" />
        <path d="M200.91,333.133c-.124,0-.249-.006-.374-.018l-36.122-3.367c-1.167-.109-2.228-.724-2.902-1.683-.674-.959-.893-2.166-.6-3.301l18.351-70.986c.474-1.831,2.161-3.087,4.053-2.995l36.231,1.633c1.201.054,2.315.646,3.031,1.612.717.966.961,2.203.665,3.368l-18.46,72.72c-.454,1.787-2.062,3.016-3.874,3.016ZM169.833,322.219l28.039,2.614,16.41-64.645-28.085-1.266-16.364,63.297Z" fill="rgba(151,179,255,1)" id="YZdvs-OKnUvtW7_Cnf0oC" data-selector="g[2]&gt;g[4]&gt;g[4]&gt;path[2]" />
      </g>
    </g>
    <g id="mheh3PARzKDdKNHLFpitL" data-selector="g[2]&gt;g[5]">
      <g id="XpZv7yDf8_hXfS0PJC-S" data-selector="g[2]&gt;g[5]&gt;g[1]" style="clip-path:url(#clippath);">
        <g id="lu4G16sNlaIt7PfI2M71h" data-selector="g[2]&gt;g[5]&gt;g[1]&gt;g[1]">
          <rect x="260.104" y="-47.836" width="2" height="235.99" transform="translate(13.972 179.81) rotate(-38.967)" fill="rgba(151,179,255,1)" id="RWyd0oF_JBzeVhjwljPvm" data-selector="g[2]&gt;g[5]&gt;g[1]&gt;g[1]&gt;rect[1]" />
          <rect x="241.667" y="-31.22" width="2" height="233.73" transform="translate(-1.153 167.95) rotate(-38.092)" fill="rgba(151,179,255,1)" id="lE_W_fcGQryTkVgXzo7dH" data-selector="g[2]&gt;g[5]&gt;g[1]&gt;g[1]&gt;rect[2]" />
          <rect x="223.6" y="-14.959" width="2" height="231.566" transform="translate(-15.224 156.459) rotate(-37.236)" fill="rgba(151,179,255,1)" id="QGSY8Xf1_D194MNjNuaJ" data-selector="g[2]&gt;g[5]&gt;g[1]&gt;g[1]&gt;rect[3]" />
          <rect x="205.89" y=".959" width="2" height="229.491" transform="translate(-28.296 145.34) rotate(-36.398)" fill="rgba(151,179,255,1)" id="sblJT2OTiY9f_CY-jXKXb" data-selector="g[2]&gt;g[5]&gt;g[1]&gt;g[1]&gt;rect[4]" />
          <rect x="188.529" y="16.544" width="2" height="227.5" transform="translate(-40.426 134.594) rotate(-35.578)" fill="rgba(151,179,255,1)" id="GsbC9wyMEOmVUhmjX-f0i" data-selector="g[2]&gt;g[5]&gt;g[1]&gt;g[1]&gt;rect[5]" />
          <rect x="171.504" y="31.809" width="2" height="225.587" transform="translate(-51.666 124.218) rotate(-34.776)" fill="rgba(151,179,255,1)" id="HyCtiapnqW8y6EFAWPYSX" data-selector="g[2]&gt;g[5]&gt;g[1]&gt;g[1]&gt;rect[6]" />
          <rect x="154.807" y="46.764" width="2" height="223.749" transform="translate(-62.065 114.213) rotate(-33.991)" fill="rgba(151,179,255,1)" id="ExsYm5Qyy8jWB2qghj9SK" data-selector="g[2]&gt;g[5]&gt;g[1]&gt;g[1]&gt;rect[7]" />
          <rect x="138.427" y="61.418" width="2" height="221.98" transform="translate(-71.672 104.574) rotate(-33.223)" fill="rgba(151,179,255,1)" id="xYbBfnFtsJIVWDvztKEpp" data-selector="g[2]&gt;g[5]&gt;g[1]&gt;g[1]&gt;rect[8]" />
          <rect x="122.212" y="75.824" width="2" height="219.734" transform="translate(-80.432 95.184) rotate(-32.472)" fill="rgba(151,179,255,1)" id="VdGKaKkGXRL11I2OH0Fdx" data-selector="g[2]&gt;g[5]&gt;g[1]&gt;g[1]&gt;rect[9]" />
          <rect x="106.588" y="89.864" width="2" height="218.633" transform="translate(-88.687 86.379) rotate(-31.738)" fill="rgba(151,179,255,1)" id="pLKnTWD_2oL3XibF02yLY" data-selector="g[2]&gt;g[5]&gt;g[1]&gt;g[1]&gt;rect[10]" />
          <rect x="91.11" y="103.674" width="2" height="217.048" transform="translate(-96.179 77.813) rotate(-31.019)" fill="rgba(151,179,255,1)" id="YbSKV0AIzFNzpkTKWK4E1" data-selector="g[2]&gt;g[5]&gt;g[1]&gt;g[1]&gt;rect[11]" />
          <rect x="75.916" y="117.219" width="2" height="215.517" transform="translate(-103.047 69.593) rotate(-30.317)" fill="rgba(151,179,255,1)" id="o7C2mPpLlFWQlwF0ZaPM2" data-selector="g[2]&gt;g[5]&gt;g[1]&gt;g[1]&gt;rect[12]" />
          <rect x="60.998" y="130.508" width="2" height="214.037" transform="translate(-109.327 61.713) rotate(-29.63)" fill="rgba(151,179,255,1)" id="ZKSZ4fVyqAghibH5HwtRO" data-selector="g[2]&gt;g[5]&gt;g[1]&gt;g[1]&gt;rect[13]" />
          <rect x="39.103" y="213.931" width="351.328" height="2" transform="translate(-86.924 178.834) rotate(-38.199)" fill="rgba(151,179,255,1)" id="k-8mRiZcUNkSr4PVGVByB" data-selector="g[2]&gt;g[5]&gt;g[1]&gt;g[1]&gt;rect[14]" />
          <rect x="30.799" y="198.805" width="347.228" height="2" transform="translate(-80.027 171.512) rotate(-38.666)" fill="rgba(151,179,255,1)" id="Bt1hFVyJJ5Nqx9WLDM5m" data-selector="g[2]&gt;g[5]&gt;g[1]&gt;g[1]&gt;rect[15]" />
          <rect x="24.157" y="183.477" width="341.559" height="2" transform="translate(-72.694 164.322) rotate(-39.114)" fill="rgba(151,179,255,1)" id="yd-BIK3nW9Uma9Xi0J73b" data-selector="g[2]&gt;g[5]&gt;g[1]&gt;g[1]&gt;rect[16]" />
          <rect x="16.182" y="168.992" width="337.678" height="2" transform="translate(-65.889 156.781) rotate(-39.562)" fill="rgba(151,179,255,1)" id="N7I9DSegXVVGxh9NlFdFB" data-selector="g[2]&gt;g[5]&gt;g[1]&gt;g[1]&gt;rect[17]" />
          <rect x="6.191" y="155.607" width="336.363" height="2" transform="translate(-59.868 148.676) rotate(-39.988)" fill="rgba(151,179,255,1)" id="JFvgjtnjDMiENjqJz05hn" data-selector="g[2]&gt;g[5]&gt;g[1]&gt;g[1]&gt;rect[18]" />
          <rect x="-1.075" y="141.591" width="332.241" height="2" transform="translate(-53.059 140.993) rotate(-40.406)" fill="rgba(151,179,255,1)" id="eHARyJI_dUAFCr3CmtjyT" data-selector="g[2]&gt;g[5]&gt;g[1]&gt;g[1]&gt;rect[19]" />
          <rect x="-8.192" y="127.863" width="328.214" height="2" transform="translate(-46.312 133.235) rotate(-40.812)" fill="rgba(151,179,255,1)" id="Jdhv_mZCXa234Rn4_xBPo" data-selector="g[2]&gt;g[5]&gt;g[1]&gt;g[1]&gt;rect[20]" />
          <rect x="-14.813" y="114.279" width="323.875" height="2" transform="translate(-39.504 125.512) rotate(-41.219)" fill="rgba(151,179,255,1)" id="QGJxpz8OgJuKaTz_8tNDu" data-selector="g[2]&gt;g[5]&gt;g[1]&gt;g[1]&gt;rect[21]" />
          <rect x="-20.952" y="100.832" width="319.23" height="2" transform="translate(-32.633 117.789) rotate(-41.615)" fill="rgba(151,179,255,1)" id="pl3OCOZzZIh8Bhqi_usk1" data-selector="g[2]&gt;g[5]&gt;g[1]&gt;g[1]&gt;rect[22]" />
          <rect x="-29.207" y="88.505" width="317.248" height="2" transform="translate(-26.648 109.591) rotate(-42.002)" fill="rgba(151,179,255,1)" id="wF2ni6jAI403jzM0tK7-O" data-selector="g[2]&gt;g[5]&gt;g[1]&gt;g[1]&gt;rect[23]" />
          <rect x="-33.89" y="75.11" width="311.399" height="2" transform="translate(-19.473 101.988) rotate(-42.378)" fill="rgba(151,179,255,1)" id="a3uelvQO1sqKJevPaLlNJ" data-selector="g[2]&gt;g[5]&gt;g[1]&gt;g[1]&gt;rect[24]" />
        </g>
      </g>
      <path d="M136.816,208.97c-.516,0-1.03-.007-1.544-.02-15.132-.389-28.067-6.718-36.421-17.822-9.614-12.778-12.328-30.844-7.447-49.567,9.277-35.585,42.924-65.371,76.6-67.811,16.853-1.221,31.429,4.446,41.046,15.957,10.613,12.704,13.8,31.292,8.743,50.997-4.763,18.561-16.022,35.912-31.701,48.856-15.207,12.554-32.645,19.411-49.276,19.411ZM172.42,81.588c-1.262,0-2.542.047-3.839.141-29.962,2.171-61.112,29.917-69.437,61.85-4.262,16.346-2.039,31.924,6.098,42.739,6.856,9.113,17.594,14.31,30.234,14.635,31.541.808,65.7-27.69,74.566-62.238l3.875.994-3.875-.994c4.409-17.181,1.809-33.175-7.134-43.879-7.198-8.617-17.924-13.247-30.49-13.247Z" fill="rgba(151,179,255,1)" id="LAJttSToBPxSWovWiyrrT" data-selector="g[2]&gt;g[5]&gt;path[2]" />
    </g>
  </g>
</g></g><g transform="translate(65 183) rotate(0 103.5 134.5) scale(1 1)" opacity="1" data-asset-index="3"><g clip-path="url(#assetClipPath_DlPU5Iuk)" transform="scale(1.0012237178774057 1.0012237178774057)" data-asset-index="3"><defs data-selector="defs[1]" /><path d="m11.19 268.634c-.917 0-1.812-.315-2.532-.903-.882-.721-1.415-1.784-1.464-2.922l-7.19-164.001c-.049-1.124.377-2.217 1.175-3.011l97.112-96.632c.761-.757 1.796-1.174 2.866-1.165 1.073.012 2.096.454 2.839 1.228l91.342 95.04c.644.67 1.034 1.542 1.104 2.469l10.292 135.399c.158 2.078-1.307 3.93-3.366 4.254l-191.557 30.195c-.208.033-.416.049-.623.049zm-3.116-166.411 6.916 157.763 183.489-28.923-9.904-130.286-87.526-91.071z" fill="rgba(3,100,251,1)" id="FVt96Cu6-62zcNdwS33bY" data-selector="path[2]" /><path d="m101.113 4-97.113 96.633 2.166 49.414 107.023 50.57 82.377-60.645-3.111-40.932z" fill="rgba(3,100,251,1)" id="PVXSpErRis-Y5CErs4qqj" data-selector="path[3]" /><path d="m113.189 204.617c-.581 0-1.164-.126-1.708-.383l-107.023-50.57c-1.342-.634-2.222-1.959-2.287-3.441l-2.167-49.415c-.049-1.124.377-2.217 1.175-3.011l97.112-96.632c.761-.757 1.805-1.171 2.866-1.165 1.073.012 2.096.454 2.839 1.228l91.342 95.04c.644.67 1.034 1.542 1.104 2.469l3.112 40.932c.104 1.375-.507 2.707-1.617 3.524l-82.377 60.645c-.699.515-1.533.779-2.372.779zm-103.132-57.155 102.683 48.519 78.67-57.915-2.835-37.289-87.526-91.071-92.975 92.516 1.983 45.239z" fill="rgba(3,100,251,1)" id="UrLY5Iwl2DHfEaGABPsf9" data-selector="path[4]" /><path d="m113.189 200.617-79.163-37.414-6.833-141.055 140.871 8.986 8.907 122.522z" fill="rgba(222,240,255,1)" id="tkqYrnJ9i7ybvRJswVmhC" data-selector="path[5]" /><path d="m113.189 204.617c-.581 0-1.165-.126-1.709-.384l-79.163-37.414c-1.336-.631-2.215-1.947-2.286-3.423l-6.833-141.054c-.055-1.137.377-2.245 1.189-3.044.811-.799 1.924-1.215 3.061-1.142l140.872 8.985c1.995.127 3.59 1.708 3.735 3.702l8.906 122.522c.1 1.371-.511 2.696-1.618 3.511l-63.782 46.961c-.7.515-1.533.779-2.372.779zm-75.283-44.005 74.834 35.368 60.082-44.236-8.493-116.84-132.924-8.479z" fill="rgba(3,100,251,1)" id="DFNcnsGEj7U4dbSbsldO" data-selector="path[6]" /><path d="m6.166 150.047 5.024 114.587 191.557-30.195-7.181-94.467-82.377 60.645z" fill="rgba(222,240,255,1)" id="eMqQIhftd1OgoSZLfpB6U" data-selector="path[7]" /><path d="m11.19 268.634c-.917 0-1.812-.315-2.532-.903-.882-.721-1.415-1.784-1.464-2.922l-5.023-114.587c-.062-1.4.615-2.731 1.782-3.506 1.167-.776 2.655-.884 3.923-.285l104.864 49.55 80.455-59.229c1.171-.862 2.717-1.021 4.04-.414 1.322.606 2.21 1.882 2.32 3.333l7.181 94.467c.158 2.078-1.307 3.93-3.366 4.254l-191.557 30.195c-.208.033-.416.049-.623.049zm-.737-112.137 4.537 103.489 183.489-28.923-6.354-83.59-76.564 56.365c-1.184.872-2.751 1.024-4.08.395z" fill="rgba(3,100,251,1)" id="TwQs6bWUHmJKv4_nC621u" data-selector="path[8]" /><path d="m153.832 134.691-95.26 4.321-2.574-48.744 94.775.09z" fill="rgba(151,179,255,1)" id="sRxTKXYTTEUH4epkGjJY5" data-selector="path[9]" /><path d="m58.569 143.012c-2.115 0-3.879-1.656-3.991-3.789l-2.574-48.744c-.058-1.097.338-2.169 1.094-2.965.755-.795 1.804-1.246 2.901-1.246h.004l94.775.091c2.101.002 3.842 1.629 3.987 3.725l3.059 44.332c.074 1.075-.288 2.134-1.005 2.938s-1.728 1.285-2.804 1.333l-95.26 4.321c-.062.003-.123.004-.184.004zm1.646-48.74 2.142 40.564 87.203-3.955-2.52-36.526z" fill="rgba(151,179,255,1)" id="R8XTO4HpFOJkbvq_MUWJ0" data-selector="path[10]" /><g fill="rgba(3,100,251,1)" id="C-LInnUhbZU4Lt1Hg0DsC" data-selector="g[11]"><path d="m85.977 126.339c-.947 0-1.897-.334-2.659-1.014l-18.606-16.578c-1.649-1.47-1.795-3.998-.325-5.647s3.998-1.795 5.647-.325l18.606 16.578c1.649 1.47 1.795 3.998.325 5.647-.79.887-1.887 1.339-2.988 1.339z" fill="rgba(3,100,251,1)" id="a7zrPx5aL9KcIj3esKoGr" data-selector="g[11]&gt;path[1]" /><path d="m68.307 126.875c-.998 0-1.997-.371-2.773-1.118-1.592-1.532-1.641-4.064-.109-5.656l16.702-17.358c1.531-1.592 4.064-1.641 5.656-.109s1.641 4.064.109 5.656l-16.702 17.358c-.785.816-1.833 1.227-2.883 1.227z" fill="rgba(3,100,251,1)" id="ddheYNQuJZM7pPk8zbiHB" data-selector="g[11]&gt;path[2]" /><path d="m115.791 125.435c-.963 0-1.928-.345-2.695-1.045l-17.643-16.101c-1.632-1.489-1.748-4.019-.258-5.651 1.489-1.632 4.019-1.747 5.651-.258l17.643 16.101c1.632 1.489 1.748 4.019.258 5.651-.789.865-1.871 1.304-2.956 1.304z" fill="rgba(3,100,251,1)" id="T7UqQTbcSPLg9rCM2sWQh" data-selector="g[11]&gt;path[3]" /><path d="m99.142 125.94c-.974 0-1.95-.353-2.72-1.068-1.619-1.503-1.714-4.034-.211-5.653l15.626-16.837c1.503-1.619 4.033-1.714 5.653-.211 1.619 1.503 1.714 4.034.211 5.653l-15.626 16.837c-.788.849-1.859 1.279-2.933 1.279z" fill="rgba(3,100,251,1)" id="VL92IfsZ7zWGoKD179QN0" data-selector="g[11]&gt;path[4]" /><path d="m143.92 124.583c-.978 0-1.958-.356-2.729-1.077l-16.76-15.652c-1.615-1.508-1.701-4.039-.193-5.653 1.508-1.615 4.039-1.701 5.654-.193l16.76 15.652c1.615 1.508 1.701 4.039.193 5.653-.788.843-1.855 1.27-2.924 1.27z" fill="rgba(3,100,251,1)" id="BxVj3uWu29TVjnQuNM0c" data-selector="g[11]&gt;path[5]" /><path d="m128.206 125.059c-.95 0-1.904-.337-2.667-1.021-1.646-1.474-1.784-4.003-.31-5.648l14.643-16.346c1.474-1.645 4.003-1.784 5.648-.31s1.784 4.003.31 5.648l-14.643 16.346c-.79.882-1.883 1.331-2.981 1.331z" fill="rgba(3,100,251,1)" id="O9A4bwqVLeBA7fvHEosMc" data-selector="g[11]&gt;path[6]" /></g></g></g><g transform="translate(275 246) rotate(0 82.5 58.5) scale(1 1)" opacity="1" data-asset-index="4"><g clip-path="url(#assetClipPath_2q-Po8aH)" transform="scale(1.0028261464126174 1.0028261464126174)" data-asset-index="4"><defs data-selector="defs[1]" /><path d="m103.082 62.889 5.027-17.595 9.921 5.713z" fill="rgba(3,100,251,1)" id="yjNDxauyWiwdJ1jcFvwQ-" data-selector="path[2]" /><path d="m103.082 66.889c-.772 0-1.546-.223-2.221-.673-1.446-.965-2.103-2.754-1.625-4.425l5.027-17.595c.338-1.184 1.203-2.146 2.344-2.608 1.142-.462 2.432-.373 3.499.241l9.921 5.713c1.148.661 1.894 1.847 1.993 3.168s-.463 2.605-1.5 3.429l-14.948 11.882c-.726.577-1.606.869-2.49.869zm7.467-15.574-.196.684.581-.462-.386-.222z" fill="rgba(3,100,251,1)" id="iIWmY4fGfo4YuGtVpTYZ-" data-selector="path[3]" /><path d="m79.383 34.881 16.03 7.624 7.669 20.384 8.977-14.004 16.629 8.259 31.847-53.144z" fill="rgba(151,179,255,1)" id="nfoCSSdCyUT44nqQuHm7" data-selector="path[4]" /><path d="m103.083 66.889c-.14 0-.28-.007-.421-.022-1.505-.159-2.791-1.153-3.324-2.569l-7.101-18.874-14.573-6.93c-1.446-.688-2.343-2.172-2.279-3.773.064-1.6 1.077-3.008 2.574-3.578l81.153-30.881c1.593-.606 3.395-.136 4.489 1.17s1.241 3.163.365 4.625l-31.847 53.144c-1.073 1.79-3.341 2.455-5.21 1.526l-13.417-6.664-7.042 10.985c-.74 1.155-2.014 1.841-3.366 1.841zm-13.527-31.599 7.575 3.603c.935.445 1.661 1.235 2.026 2.204l4.861 12.922 4.674-7.291c1.101-1.718 3.32-2.331 5.147-1.424l13.318 6.615 24.015-40.075-61.616 23.447z" fill="rgba(3,100,251,1)" id="E7k3aygURW0EJXc28nE4B" data-selector="path[5]" /><path d="m115.7 36.676 44.835-32.676" fill="rgba(151,179,255,1)" id="a5BLnZ8OS650fS1ZOMHh_" data-selector="path[6]" /><g fill="rgba(3,100,251,1)" id="Y9kiW_4kHJRkOiosZ9hcK" data-selector="g[7]"><path d="m115.704 40.677c-1.235 0-2.453-.57-3.236-1.644-1.301-1.785-.909-4.287.877-5.589l44.834-32.677c1.785-1.301 4.287-.909 5.589.877 1.301 1.785.909 4.287-.877 5.589l-44.835 32.676c-.711.518-1.536.768-2.353.768z" fill="rgba(3,100,251,1)" id="nAKFRxPfm3p9IxxsJhA6R" data-selector="g[7]&gt;path[1]" /><path d="m88.84 80.288c-1.228 0-2.44-.563-3.224-1.628-1.31-1.779-.93-4.283.849-5.593 1.711-1.26 3.338-2.557 4.835-3.854 1.67-1.446 4.196-1.266 5.642.404 1.447 1.67 1.266 4.196-.404 5.642-1.656 1.434-3.448 2.864-5.329 4.249-.714.526-1.545.779-2.369.779z" fill="rgba(3,100,251,1)" id="Ybvm9gvqxLQHM61eFxI-" data-selector="g[7]&gt;path[2]" /><path d="m24.199 107.892c-1.405 0-2.767-.741-3.499-2.056-1.074-1.93-.38-4.366 1.55-5.44 3.826-2.129 7.571-4.459 11.13-6.925 1.816-1.258 4.308-.806 5.566 1.01s.806 4.308-1.01 5.566c-3.773 2.614-7.742 5.083-11.796 7.339-.616.343-1.283.505-1.941.505zm38.504-15.489c-2.016 0-3.75-1.52-3.972-3.57-.238-2.196 1.35-4.169 3.547-4.407 3.225-.349 7.211-1.622 11.529-3.682 1.994-.951 4.381-.106 5.333 1.888s.106 4.381-1.888 5.333c-5.195 2.478-9.943 3.964-14.113 4.415-.146.016-.292.024-.435.024zm-15.451-1.335c-.305 0-.615-.035-.926-.109-4.808-1.139-9.376-2.898-13.578-5.227-1.932-1.071-2.63-3.506-1.559-5.438s3.505-2.63 5.438-1.559c2.67 1.48 5.52 2.69 8.505 3.612 1.995-2.881 3.299-5.847 3.884-8.837.424-2.168 2.525-3.583 4.694-3.157 2.168.424 3.582 2.526 3.157 4.694-.848 4.335-2.748 8.553-5.655 12.556-.018.129-.042.258-.072.388-.436 1.839-2.077 3.079-3.889 3.079zm-24.651-14.543c-1.117 0-2.227-.465-3.018-1.373-3.459-3.972-6.1-8.416-7.636-12.851-.723-2.087.383-4.366 2.47-5.089 2.086-.723 4.366.383 5.089 2.47 1.205 3.477 3.317 7.009 6.11 10.216 1.451 1.666 1.277 4.193-.389 5.643-.758.66-1.694.984-2.625.984zm28.289-13.417c-1.498 0-2.934-.845-3.617-2.288-1.612-3.402-4.104-6.612-7.208-9.283-1.675-1.441-1.864-3.966-.423-5.641s3.967-1.864 5.641-.423c3.945 3.394 7.133 7.516 9.219 11.922.946 1.996.094 4.382-1.902 5.328-.553.262-1.136.386-1.71.386zm-34.189-13.059c-.84 0-1.686-.263-2.407-.808-1.763-1.331-2.114-3.839-.782-5.603 1.958-2.594 5.771-5.745 12.811-6.023.984-.039 2.007.01 3.051.144 2.191.281 3.74 2.286 3.458 4.477-.281 2.191-2.29 3.738-4.477 3.458-.603-.077-1.176-.107-1.717-.085-3.139.124-5.407 1.083-6.741 2.849-.786 1.042-1.984 1.59-3.195 1.59z" fill="rgba(3,100,251,1)" id="qoOzk5qpQh9VCqB9dD4_k" data-selector="g[7]&gt;path[3]" /><path d="m3.998 116.962c-1.715 0-3.301-1.112-3.826-2.838-.643-2.114.55-4.348 2.664-4.99.018-.005 2.19-.674 5.74-2.129 2.045-.838 4.381.141 5.218 2.185s-.141 4.38-2.185 5.218c-3.934 1.612-6.345 2.349-6.446 2.38-.388.118-.78.174-1.165.174z" fill="rgba(3,100,251,1)" id="iGm7KnxpuamkYNxt_azeA" data-selector="g[7]&gt;path[4]" /></g></g></g></svg>