<svg xmlns="http://www.w3.org/2000/svg" fill="none" viewBox="0 0 1500 1500" width="1500" height="1500"><defs><clipPath id="assetClipPath_pQ4S6XB7"><path d="m0 0 h 519.319 a 0,0 0 0 1 0,0 v 895.021 a 0,0 0 0 1 -0,0 h -519.319 a 0,0 0 0 1 -0,-0 v -895.021 a 0,0 0 0 1 0,-0 z" id="path_3A3s2ymF" fill="#ffffff" /></clipPath><clipPath id="assetClipPath_T4iVZe7O"><path d="m0 0 h 337.352 a 0,0 0 0 1 0,0 v 366.707 a 0,0 0 0 1 -0,0 h -337.352 a 0,0 0 0 1 -0,-0 v -366.707 a 0,0 0 0 1 0,-0 z" id="path_T2b3wVcZ" fill="#ffffff" /></clipPath><clipPath id="assetClipPath_z51HERJx"><path d="m0 0 h 344.587 a 0,0 0 0 1 0,0 v 700.722 a 0,0 0 0 1 -0,0 h -344.587 a 0,0 0 0 1 -0,-0 v -700.722 a 0,0 0 0 1 0,-0 z" id="path_LLPdmDnv" fill="#ffffff" /></clipPath><clipPath id="assetClipPath_rTgOFoeg"><path d="m0 0 h 177.894 a 0,0 0 0 1 0,0 v 177.894 a 0,0 0 0 1 -0,0 h -177.894 a 0,0 0 0 1 -0,-0 v -177.894 a 0,0 0 0 1 0,-0 z" id="path_p1vzdga3" fill="#ffffff" /></clipPath><clipPath id="assetClipPath_CUFLcwEZ"><path d="m0 0 h 916.472 a 0,0 0 0 1 0,0 v 212.54 a 0,0 0 0 1 -0,0 h -916.472 a 0,0 0 0 1 -0,-0 v -212.54 a 0,0 0 0 1 0,-0 z" id="path_N2z9NAc_" fill="#ffffff" /></clipPath><clipPath id="assetClipPath_GP9-bchg"><path d="m0 0 h 251.492 a 0,0 0 0 1 0,0 v 281.728 a 0,0 0 0 1 -0,0 h -251.492 a 0,0 0 0 1 -0,-0 v -281.728 a 0,0 0 0 1 0,-0 z" id="path_ZnilgnWk" fill="#ffffff" /></clipPath><clipPath id="assetClipPath_U3L4VPYs"><path d="m0 0 h 145.377 a 0,0 0 0 1 0,0 v 113.356 a 0,0 0 0 1 -0,0 h -145.377 a 0,0 0 0 1 -0,-0 v -113.356 a 0,0 0 0 1 0,-0 z" id="path_NcgYi-b5" fill="#ffffff" /></clipPath></defs><g transform="translate(363 333) rotate(0 282.5 487.5) scale(1 1)" opacity="1" data-asset-index="0"><g clip-path="url(#assetClipPath_pQ4S6XB7)" transform="scale(1.0879632749812735 1.0879632749812735)" data-asset-index="0"><defs data-selector="defs[1]" /><path d="m471.638 895.021h-423.957c-26.334 0-47.681-21.347-47.681-47.681v-799.659c0-26.334 21.347-47.681 47.681-47.681h423.957c26.333 0 47.681 21.347 47.681 47.681v799.66c0 26.333-21.347 47.68-47.681 47.68z" fill="rgba(37,36,46,1)" id="N_Xh07gEsCIdSATes0eO" data-selector="path[2]" /><path d="m467.872 873.191h-416.425c-17.626 0-31.915-14.289-31.915-31.915v-787.531c0-17.626 14.289-31.915 31.915-31.915h416.426c17.626 0 31.915 14.289 31.915 31.915v787.532c-.001 17.626-14.29 31.914-31.916 31.914z" fill="rgba(255,255,255,1)" id="zoJx9dDIDoZ9xH9iGEsL7" data-selector="path[3]" /><path d="m300.21 77.979h-83.347c-10.576 0-19.149-8.573-19.149-19.149 0-10.576 8.573-19.149 19.149-19.149h83.347c10.576 0 19.149 8.573 19.149 19.149 0 10.575-8.573 19.149-19.149 19.149z" fill="rgba(37,36,46,1)" id="gF1Ua89u9LazgIIQKU76h" data-selector="path[4]" /></g></g><g transform="translate(194 186) rotate(0 183 198.5) scale(1 1)" opacity="1" data-asset-index="1"><g clip-path="url(#assetClipPath_T4iVZe7O)" transform="scale(1.0849202020441557 1.0849202020441557)" data-asset-index="1"><defs data-selector="defs[1]" /><path d="m168.676 364.707c111.782-34.132 161.334-181.353 166.676-284.91-59.332 0-126.635-25.398-166.676-77.797-40.041 52.399-107.344 77.797-166.676 77.797 5.342 103.556 54.894 250.778 166.676 284.91z" fill="rgba(234,234,255,1)" id="eL29tr2na8Dgq5hwaT9y6" data-selector="path[2]" /><path d="m168.676 366.707c-.197 0-.394-.029-.584-.087-50.728-15.489-93.765-56.099-124.458-117.438-24.728-49.421-40.631-111.121-43.632-169.282-.028-.547.17-1.083.547-1.48s.902-.623 1.45-.623c30.425 0 61.465-6.597 89.765-19.079 30.642-13.514 56.688-33.547 75.322-57.932.757-.99 2.422-.99 3.179 0 18.634 24.385 44.68 44.418 75.321 57.932 28.3 12.482 59.34 19.079 89.765 19.079.548 0 1.073.225 1.45.623s.575.933.547 1.48c-3 58.161-18.903 119.861-43.632 169.281-30.693 61.339-73.729 101.949-124.458 117.438-.188.059-.385.088-.582.088zm-164.565-284.921c3.241 57.014 18.906 117.252 43.101 165.605 30.073 60.1 72.062 99.928 121.464 115.223 49.402-15.295 91.392-55.123 121.464-115.223 24.195-48.353 39.86-108.591 43.101-165.605-51.489-.541-120.78-20.911-164.565-76.522-43.785 55.611-113.076 75.981-164.565 76.522z" fill="rgba(0,26,169,1)" id="K0RugpnewSJ_n1S0RCIeg" data-selector="path[3]" /><g fill="rgba(156,168,255,1)" id="uRhyLhyLw8OT5BcWq457F" data-selector="g[4]"><path d="m168.676 331.394c89.335-27.278 128.937-144.936 133.206-227.697-47.418 0-101.206-20.298-133.206-62.175-32 41.877-85.788 62.175-133.206 62.175 4.269 82.762 43.871 200.42 133.206 227.697z" fill="rgba(156,168,255,1)" id="JW911QxbUprhvDL_sEqIE" data-selector="g[4]&gt;path[1]" /><path d="m168.676 333.394c-.197 0-.394-.029-.584-.087-40.649-12.412-75.127-44.937-99.708-94.06-19.787-39.543-32.512-88.912-34.912-135.447-.028-.547.17-1.083.547-1.48s.902-.623 1.45-.623c40.949 0 97.029-16.127 131.617-61.389.757-.99 2.422-.99 3.179 0 34.587 45.262 90.667 61.389 131.616 61.389.548 0 1.073.225 1.45.623s.575.933.547 1.48c-2.4 46.535-15.125 95.903-34.912 135.447-24.58 49.123-59.058 81.648-99.707 94.06-.189.058-.386.087-.583.087zm-131.094-227.71c2.641 45.388 15.127 93.297 34.38 131.773 23.958 47.881 57.393 79.626 96.714 91.844 39.321-12.218 72.755-43.963 96.714-91.844 19.253-38.477 31.739-86.386 34.38-131.773-41.078-.54-96.119-16.799-131.094-60.905-34.975 44.106-90.016 60.365-131.094 60.905z" fill="rgba(156,168,255,1)" id="yT2ZNb7XjZwXglFCKpHZn" data-selector="g[4]&gt;path[2]" /></g></g></g><g transform="translate(928 545) rotate(0 186.5 379.5) scale(1 1)" opacity="1" data-asset-index="2"><g clip-path="url(#assetClipPath_z51HERJx)" transform="scale(1.0824552290132825 1.0824552290132825)" data-asset-index="2"><defs data-selector="defs[1]" /><g fill="rgba(156,168,255,1)" id="j6obD8ylG-8qt_NvDMtj4" data-selector="g[2]"><path d="m.886 62.411 170.422 436.842 37.995-14.305-175.228-449.163-25.948 10.123c-6.557 2.558-9.799 9.947-7.241 16.503z" fill="rgba(156,168,255,1)" id="zu-rxkd6VOlwoqT0ts2_u" data-selector="g[2]&gt;path[1]" /><path d="m336.384 537.773c-23.984-61.479-93.267-91.875-154.746-67.89s-91.875 93.267-67.89 154.746 93.267 91.875 154.746 67.89 91.874-93.267 67.89-154.746zm-81.543 119.751c-42.152 16.444-89.654-4.396-106.099-46.548s4.396-89.654 46.548-106.098c42.152-16.445 89.654 4.396 106.098 46.548s-4.395 89.653-46.547 106.098z" fill="rgba(156,168,255,1)" id="chuFsI_kxUsdbeg1fFToX" data-selector="g[2]&gt;path[2]" /><path d="m144.148 18.671-4.128-10.581c-2.55-6.536-9.916-9.768-16.453-7.218l-115.477 45.05c-6.536 2.55-9.768 9.916-7.218 16.453l4.128 10.581c2.55 6.536 9.916 9.768 16.453 7.218l115.477-45.05c6.536-2.55 9.768-9.916 7.218-16.453z" fill="rgba(156,168,255,1)" id="uCcDQEneb55ey8unCcbff" data-selector="g[2]&gt;path[3]" /><path d="m195.03 149.098-4.128-10.581c-2.55-6.536-9.916-9.768-16.453-7.218l-115.477 45.05c-6.536 2.55-9.768 9.916-7.218 16.453l4.128 10.581c2.55 6.536 9.916 9.768 16.453 7.218l115.477-45.05c6.537-2.551 9.768-9.917 7.218-16.453z" fill="rgba(156,168,255,1)" id="wZvNReMP8p5uhoQg1TRB3" data-selector="g[2]&gt;path[4]" /><path d="m129.629 99.474-4.128-10.581c-2.55-6.536-9.916-9.768-16.453-7.218l-75.517 29.461c-6.536 2.55-9.768 9.916-7.218 16.453l4.128 10.581c2.55 6.536 9.916 9.768 16.453 7.218l75.517-29.461c6.536-2.551 9.768-9.917 7.218-16.453z" fill="rgba(156,168,255,1)" id="soLOIg0mZc2gTSPGGQj" data-selector="g[2]&gt;path[5]" /></g></g></g><g transform="translate(542 622) rotate(0 106 106) scale(1 1)" opacity="1" data-asset-index="3"><g clip-path="url(#assetClipPath_rTgOFoeg)" transform="scale(1.1917209124534835 1.1917209124534835)" data-asset-index="3"><defs data-selector="defs[1]" /><circle cx="88.947" cy="88.947" fill="rgba(255,255,255,1)" r="85.947" id="UF1GbiKgUnX0XlILez-FI" data-selector="circle[2]" /><g fill="rgba(40,36,46,1)" id="LB225iJkTofCvfFLgQZyl" data-selector="g[3]"><circle cx="88.947" cy="56.501" r="30.649" fill="rgba(40,36,46,1)" id="Vp_-i5JmR-5BBEzg7bh_q" data-selector="g[3]&gt;circle[1]" /><path d="m161.39 135.168c-16.769-21.071-42.633-34.582-71.655-34.582-29.528 0-55.785 13.985-72.522 35.689 15.38 23.264 41.758 38.619 71.734 38.619 30.447 0 57.175-15.846 72.443-39.726z" fill="rgba(40,36,46,1)" id="YMOmT2fe55ehdw3XYWBtN" data-selector="g[3]&gt;path[2]" /><path d="m88.947 177.894c-49.046 0-88.947-39.901-88.947-88.947s39.901-88.947 88.947-88.947 88.947 39.901 88.947 88.947-39.901 88.947-88.947 88.947zm0-171.894c-45.737 0-82.947 37.21-82.947 82.947s37.21 82.947 82.947 82.947 82.947-37.21 82.947-82.947-37.21-82.947-82.947-82.947z" fill="rgba(40,36,46,1)" id="uS-CxlPchUfWeyzjzTJY4" data-selector="g[3]&gt;path[3]" /></g></g></g><g transform="translate(84 876) rotate(0 390 90.5) scale(1 1)" opacity="1" data-asset-index="4"><g clip-path="url(#assetClipPath_CUFLcwEZ)" transform="scale(0.8510898314405677 0.8510898314405677)" data-asset-index="4"><defs data-selector="defs[1]" /><rect fill="rgba(234,234,255,1)" height="191.306" rx="54" width="896.17" x="2" y="2" id="edOQxEMl10EC4y_vSTrj" data-selector="rect[2]" /><path d="m844.17 195.306h-788.17c-30.878 0-56-25.121-56-56v-83.306c0-30.878 25.122-56 56-56h788.17c30.879 0 56 25.122 56 56v83.306c0 30.878-25.121 56-56 56zm-788.17-191.306c-28.673 0-52 23.327-52 52v83.306c0 28.673 23.327 52 52 52h788.17c28.673 0 52-23.327 52-52v-83.306c0-28.673-23.327-52-52-52z" fill="rgba(0,26,169,1)" id="VDdOrrD_0jSyqsNpQl0Z" data-selector="path[3]" /><g fill="rgba(156,168,255,1)" id="aTaaJe9qwz3pbhc4dJgm" data-selector="g[4]"><path d="m81.686 134.932c-.512 0-1.024-.195-1.414-.586-.781-.781-.781-2.047 0-2.829l66.799-66.799c.781-.781 2.047-.781 2.828 0s.781 2.047 0 2.829l-66.799 66.799c-.391.39-.902.586-1.414.586z" fill="rgba(156,168,255,1)" id="HKc6MZFgOAOTliI4Jgekh" data-selector="g[4]&gt;path[1]" /><path d="m148.485 134.932c-.512 0-1.024-.195-1.414-.586l-66.8-66.799c-.781-.781-.781-2.047 0-2.829.781-.781 2.047-.781 2.828 0l66.799 66.799c.781.781.781 2.047 0 2.829-.391.39-.902.586-1.414.586z" fill="rgba(156,168,255,1)" id="K5az-9YdBU6P4aevb3VoA" data-selector="g[4]&gt;path[2]" /><path d="m115.085 148.766c-1.105 0-2-.896-2-2v-94.468c0-1.104.895-2 2-2s2 .896 2 2v94.468c0 1.104-.895 2-2 2z" fill="rgba(156,168,255,1)" id="GvNYIPltw0FlLh1sGg_" data-selector="g[4]&gt;path[3]" /><path d="m162.319 101.532h-94.468c-1.105 0-2-.896-2-2s.895-2 2-2h94.468c1.105 0 2 .896 2 2s-.895 2-2 2z" fill="rgba(156,168,255,1)" id="fE7C2QYfogqn9t23GIMsC" data-selector="g[4]&gt;path[4]" /><path d="m305.019 134.932c-.512 0-1.024-.195-1.414-.586-.781-.781-.781-2.047 0-2.829l66.799-66.799c.781-.781 2.047-.781 2.829 0 .781.781.781 2.047 0 2.829l-66.799 66.799c-.391.39-.902.586-1.414.586z" fill="rgba(156,168,255,1)" id="TC4NxnJeDkq3vHQMsu-J" data-selector="g[4]&gt;path[5]" /><path d="m371.818 134.932c-.512 0-1.024-.195-1.414-.586l-66.799-66.799c-.781-.781-.781-2.047 0-2.829.781-.781 2.047-.781 2.829 0l66.799 66.799c.781.781.781 2.047 0 2.829-.391.39-.902.586-1.414.586z" fill="rgba(156,168,255,1)" id="OF8rro3ALOeFd07v_1CB-" data-selector="g[4]&gt;path[6]" /><path d="m338.419 148.766c-1.104 0-2-.896-2-2v-94.468c0-1.104.896-2 2-2s2 .896 2 2v94.468c0 1.104-.896 2-2 2z" fill="rgba(156,168,255,1)" id="H1vbVYhVt6B_FYGyjDHS" data-selector="g[4]&gt;path[7]" /><path d="m385.652 101.532h-94.468c-1.104 0-2-.896-2-2s.896-2 2-2h94.468c1.104 0 2 .896 2 2s-.896 2-2 2z" fill="rgba(156,168,255,1)" id="Jks-gDkxjrjn8uAgZv3Mp" data-selector="g[4]&gt;path[8]" /><path d="m528.352 134.932c-.512 0-1.024-.195-1.414-.586-.781-.781-.781-2.047 0-2.829l66.799-66.799c.781-.781 2.047-.781 2.829 0 .781.781.781 2.047 0 2.829l-66.799 66.799c-.391.39-.902.586-1.414.586z" fill="rgba(156,168,255,1)" id="JSr-T7bU2QOPzbBEWS812" data-selector="g[4]&gt;path[9]" /><path d="m595.151 134.932c-.512 0-1.024-.195-1.414-.586l-66.799-66.799c-.781-.781-.781-2.047 0-2.829.781-.781 2.048-.78 2.829 0l66.799 66.799c.781.781.781 2.047 0 2.829-.391.39-.903.586-1.414.586z" fill="rgba(156,168,255,1)" id="M5oLo8XPrSoSGXrbGlMT" data-selector="g[4]&gt;path[10]" /><path d="m561.752 148.766c-1.104 0-2-.896-2-2v-94.468c0-1.104.896-2 2-2s2 .896 2 2v94.468c0 1.104-.896 2-2 2z" fill="rgba(156,168,255,1)" id="e9xu-J0kbitBD7Zs7Trvj" data-selector="g[4]&gt;path[11]" /><path d="m608.986 101.532h-94.468c-1.104 0-2-.896-2-2s.896-2 2-2h94.468c1.104 0 2 .896 2 2s-.896 2-2 2z" fill="rgba(156,168,255,1)" id="FMH4zhNXgZk-HSuTj9EhK" data-selector="g[4]&gt;path[12]" /><path d="m751.686 134.932c-.512 0-1.024-.195-1.414-.586-.781-.781-.781-2.047 0-2.829l66.799-66.799c.781-.781 2.047-.781 2.829 0 .781.781.781 2.047 0 2.829l-66.799 66.799c-.391.39-.902.586-1.414.586z" fill="rgba(156,168,255,1)" id="pj9P5xBJpPZOScMy8JVm4" data-selector="g[4]&gt;path[13]" /><path d="m818.485 134.932c-.512 0-1.024-.195-1.414-.586l-66.799-66.799c-.781-.781-.781-2.047 0-2.829.781-.781 2.047-.781 2.829 0l66.799 66.799c.781.781.781 2.047 0 2.829-.391.39-.902.586-1.414.586z" fill="rgba(156,168,255,1)" id="ezHAo8RKSuMzKtQqk4zq" data-selector="g[4]&gt;path[14]" /><path d="m785.085 148.766c-1.104 0-2-.896-2-2v-94.468c0-1.104.896-2 2-2s2 .896 2 2v94.468c0 1.104-.896 2-2 2z" fill="rgba(156,168,255,1)" id="olt5Cw0BV925WAtG-Wg5" data-selector="g[4]&gt;path[15]" /><path d="m832.319 101.532h-94.468c-1.104 0-2-.896-2-2s.896-2 2-2h94.468c1.104 0 2 .896 2 2s-.896 2-2 2z" fill="rgba(156,168,255,1)" id="n1R-meS8LoKYFYIiwYmI8" data-selector="g[4]&gt;path[16]" /><path d="m860.472 212.54h-788.171c-30.878 0-56-25.122-56-56v-83.306c0-30.878 25.122-56 56-56h788.171c30.879 0 56 25.122 56 56v83.306c0 30.878-25.121 56-56 56zm-788.171-191.306c-28.673 0-52 23.327-52 52v83.306c0 28.673 23.327 52 52 52h788.171c28.673 0 52-23.327 52-52v-83.306c0-28.673-23.327-52-52-52z" fill="rgba(156,168,255,1)" id="t4TqU8OIMfVATnvy-hqs-" data-selector="g[4]&gt;path[17]" /><path d="m25.586 185.642c-.689 0-1.36-.356-1.731-.995-4.942-8.5-7.554-18.219-7.554-28.106v-83.307c0-30.878 25.121-56 56-56h788.171c11.194 0 21.998 3.292 31.245 9.521.916.617 1.159 1.86.542 2.776s-1.86 1.158-2.776.542c-8.585-5.782-18.616-8.838-29.011-8.838h-788.171c-28.673 0-52 23.327-52 52v83.306c0 9.182 2.425 18.206 7.012 26.096.555.955.231 2.179-.724 2.734-.316.184-.662.271-1.003.271z" fill="rgba(156,168,255,1)" id="IC7KDQHkmo_gqhdiDBcHl" data-selector="g[4]&gt;path[18]" /></g></g></g><g transform="translate(1146 922) rotate(0 135 151) scale(1 1)" opacity="1" data-asset-index="5"><g clip-path="url(#assetClipPath_GP9-bchg)" transform="scale(1.0735927981804592 1.0735927981804592)" data-asset-index="5"><defs data-selector="defs[1]" /><g fill="rgba(156,168,255,1)" id="bwbxr1nPpDwgJr0j2nT4l" data-selector="g[2]"><path d="m93.14 103.541c-.8 0-1.555-.483-1.864-1.274l-35.376-90.679h-38.724c-1.104 0-2-.896-2-2s.896-2 2-2h40.091c.824 0 1.564.505 1.863 1.273l35.873 91.953c.401 1.028-.107 2.188-1.136 2.59-.239.092-.485.137-.727.137z" fill="rgba(156,168,255,1)" id="VSSnzH6iImvUocd1UlCN" data-selector="g[2]&gt;path[1]" /><path d="m203.98 132.721h-47.679c-.812 0-1.543-.491-1.851-1.242l-35.05-85.632c-.418-1.022.071-2.19 1.093-2.609 1.021-.418 2.19.071 2.609 1.093l34.542 84.389h46.336c1.104 0 2 .896 2 2s-.895 2.001-2 2.001z" fill="rgba(156,168,255,1)" id="j6CK90u2iQN94aMtvz8dm" data-selector="g[2]&gt;path[2]" /><path d="m239.032 218.353c-.788 0-1.535-.469-1.852-1.243l-35.05-85.632c-.418-1.022.071-2.19 1.093-2.608 1.021-.419 2.19.07 2.609 1.093l35.05 85.632c.418 1.022-.071 2.19-1.093 2.608-.248.101-.505.15-.757.15z" fill="rgba(156,168,255,1)" id="fPzxyZrVMEuH9mJffyqS" data-selector="g[2]&gt;path[3]" /><path d="m207.864 274.139h-74.025c-1.104 0-2-.896-2-2s.896-2 2-2h71.098l-30.824-79.013c-.401-1.028.107-2.188 1.136-2.59 1.029-.399 2.189.106 2.59 1.137l31.888 81.739c.24.615.161 1.31-.212 1.854-.372.547-.99.873-1.651.873z" fill="rgba(156,168,255,1)" id="jzKXzW49XZ4EDifNG4CX" data-selector="g[2]&gt;path[4]" /><path d="m9.588 19.176c-5.287 0-9.588-4.302-9.588-9.588s4.301-9.588 9.588-9.588 9.588 4.301 9.588 9.588-4.302 9.588-9.588 9.588zm0-15.176c-3.081 0-5.588 2.507-5.588 5.588s2.507 5.588 5.588 5.588 5.588-2.507 5.588-5.588-2.507-5.588-5.588-5.588z" fill="rgba(156,168,255,1)" id="ZJOc_Y312Tu7evlmET-kK" data-selector="g[2]&gt;path[5]" /><path d="m95.895 118.192c-5.287 0-9.587-4.301-9.587-9.588s4.301-9.588 9.587-9.588 9.588 4.301 9.588 9.588-4.301 9.588-9.588 9.588zm0-15.176c-3.081 0-5.587 2.507-5.587 5.588s2.506 5.588 5.587 5.588 5.588-2.507 5.588-5.588-2.507-5.588-5.588-5.588z" fill="rgba(156,168,255,1)" id="aV3E_EswfELBGe3A0mW" data-selector="g[2]&gt;path[6]" /><path d="m118.378 47.656c-5.287 0-9.588-4.301-9.588-9.587s4.301-9.588 9.588-9.588 9.587 4.301 9.587 9.588-4.3 9.587-9.587 9.587zm0-15.175c-3.081 0-5.588 2.507-5.588 5.588s2.507 5.587 5.588 5.587 5.587-2.506 5.587-5.587-2.506-5.588-5.587-5.588z" fill="rgba(156,168,255,1)" id="moEc64wOcMc2Zpn_PW8qH" data-selector="g[2]&gt;path[7]" /><path d="m241.904 232.961c-5.287 0-9.588-4.301-9.588-9.588s4.301-9.588 9.588-9.588 9.588 4.301 9.588 9.588-4.301 9.588-9.588 9.588zm0-15.176c-3.081 0-5.588 2.507-5.588 5.588s2.507 5.588 5.588 5.588 5.588-2.507 5.588-5.588-2.507-5.588-5.588-5.588z" fill="rgba(156,168,255,1)" id="EPZGZH-0NigIQ8It3owHg" data-selector="g[2]&gt;path[8]" /><path d="m126.251 281.727c-5.287 0-9.588-4.301-9.588-9.588s4.301-9.588 9.588-9.588 9.588 4.301 9.588 9.588-4.301 9.588-9.588 9.588zm0-15.175c-3.081 0-5.588 2.507-5.588 5.588s2.507 5.588 5.588 5.588 5.588-2.507 5.588-5.588-2.506-5.588-5.588-5.588z" fill="rgba(156,168,255,1)" id="BBBp6W3LktRhMSoNtY2" data-selector="g[2]&gt;path[9]" /><path d="m173.22 192.925c-5.287 0-9.588-4.301-9.588-9.588s4.301-9.588 9.588-9.588 9.588 4.301 9.588 9.588-4.301 9.588-9.588 9.588zm0-15.176c-3.081 0-5.588 2.507-5.588 5.588s2.507 5.588 5.588 5.588 5.588-2.507 5.588-5.588-2.507-5.588-5.588-5.588z" fill="rgba(156,168,255,1)" id="Ohw2HAHLlgGLbxks5AEBF" data-selector="g[2]&gt;path[10]" /></g></g></g><g transform="translate(303 328) rotate(0 82 64) scale(1 1)" opacity="1" data-asset-index="6"><g clip-path="url(#assetClipPath_U3L4VPYs)" transform="scale(1.128101419069041 1.128101419069041)" data-asset-index="6"><defs data-selector="defs[1]" /><path d="m63.967 113.357c-2.314 0-4.549-.892-6.231-2.507l-54.968-52.758c-3.586-3.442-3.703-9.139-.261-12.725s9.14-3.703 12.725-.261l47.679 45.762 66.299-87.31c3.005-3.958 8.651-4.731 12.61-1.725 3.958 3.006 4.731 8.652 1.725 12.61l-72.41 95.357c-1.552 2.045-3.905 3.329-6.464 3.53-.235.017-.47.027-.704.027z" fill="rgba(255,255,255,1)" id="t8idzxPnxxO6jM4Y4M_oq" data-selector="path[2]" /></g></g></svg>