<svg xmlns="http://www.w3.org/2000/svg"  viewBox="0 0 100 100" width="250px" height="250px"><path d="M 44.984375 12.986328 A 1.0001 1.0001 0 0 0 44 14 L 44 35.5 C 44 36.341869 43.765311 37.321821 42.988281 38.560547 C 42.86401 33.348287 39.43185 30 34.150391 30 C 32.350391 30 22.890781 30.909844 13.300781 48.839844 C 9.0607812 56.769844 7 65.310937 7 74.960938 C 7 81.460937 12.249141 86.949453 18.369141 86.939453 L 18.380859 86.939453 C 18.410859 86.949453 19.070391 87 20.150391 87 C 25.510391 87 43 85.649609 43 68.349609 L 43 52.246094 C 47.009552 50.020416 48.927773 48.503207 50.001953 47.53125 C 51.076107 48.502426 52.99212 50.020164 57 52.244141 L 57 68.349609 C 57 85.649609 74.489609 87 79.849609 87 C 80.889609 87 81.539062 86.949219 81.539062 86.949219 C 87.749063 86.949219 93 81.460938 93 74.960938 C 93 65.310937 90.939219 56.769844 86.699219 48.839844 C 77.109219 30.909844 67.649609 30 65.849609 30 C 60.56815 30 57.13599 33.348287 57.011719 38.560547 C 56.234689 37.321821 56 36.341869 56 35.5 L 56 14 A 1.0001 1.0001 0 0 0 54.984375 12.986328 A 1.0001 1.0001 0 0 0 54 14 L 54 21 L 52.5 21 A 0.50005 0.50005 0 0 0 52.449219 21.003906 A 0.50005 0.50005 0 0 0 52.400391 21.011719 A 0.50005 0.50005 0 0 0 52.353516 21.025391 A 0.50005 0.50005 0 0 0 52.21875 21.091797 A 0.50005 0.50005 0 0 0 52.179688 21.123047 A 0.50005 0.50005 0 0 0 52.142578 21.15625 A 0.50005 0.50005 0 0 0 52.058594 21.279297 A 0.50005 0.50005 0 0 0 52.023438 21.373047 A 0.50005 0.50005 0 0 0 52.013672 21.421875 A 0.50005 0.50005 0 0 0 52.011719 21.572266 A 0.50005 0.50005 0 0 0 52.037109 21.667969 A 0.50005 0.50005 0 0 0 52.054688 21.714844 A 0.50005 0.50005 0 0 0 52.078125 21.757812 A 0.50005 0.50005 0 0 0 52.138672 21.837891 A 0.50005 0.50005 0 0 0 52.255859 21.931641 A 0.50005 0.50005 0 0 0 52.394531 21.986328 A 0.50005 0.50005 0 0 0 52.494141 22 A 0.50005 0.50005 0 0 0 52.5 22 L 54 22 L 54 28 L 46 28 L 46 22 L 50.5 22 A 0.50005 0.50005 0 0 0 50.599609 21.988281 A 0.50005 0.50005 0 0 0 50.693359 21.957031 A 0.50005 0.50005 0 0 0 50.738281 21.935547 A 0.50005 0.50005 0 0 0 50.820312 21.876953 A 0.50005 0.50005 0 0 0 50.857422 21.84375 A 0.50005 0.50005 0 0 0 50.917969 21.763672 A 0.50005 0.50005 0 0 0 50.941406 21.720703 A 0.50005 0.50005 0 0 0 50.960938 21.673828 A 0.50005 0.50005 0 0 0 50.976562 21.626953 A 0.50005 0.50005 0 0 0 50.992188 21.527344 A 0.50005 0.50005 0 0 0 50.978516 21.378906 A 0.50005 0.50005 0 0 0 50.861328 21.162109 A 0.50005 0.50005 0 0 0 50.744141 21.068359 A 0.50005 0.50005 0 0 0 50.701172 21.044922 A 0.50005 0.50005 0 0 0 50.605469 21.013672 A 0.50005 0.50005 0 0 0 50.556641 21.003906 A 0.50005 0.50005 0 0 0 50.505859 21 A 0.50005 0.50005 0 0 0 50.5 21 L 46 21 L 46 14 A 1.0001 1.0001 0 0 0 44.984375 12.986328 z M 46 29 L 54 29 L 54 35.5 C 54 35.730537 54.013584 35.961898 54.039062 36.193359 C 54.044584 36.242713 54.057704 36.293987 54.064453 36.34375 C 54.090884 36.541302 54.121057 36.739004 54.166016 36.9375 C 54.171662 36.962109 54.181546 36.987011 54.1875 37.011719 C 54.243781 37.248199 54.313933 37.486441 54.396484 37.724609 C 54.396484 37.724609 54.396484 37.726562 54.396484 37.726562 C 54.397138 37.728425 54.397783 37.730559 54.398438 37.732422 C 54.773594 38.811279 55.411608 39.908058 56.326172 41.041016 C 56.371141 41.096723 56.432229 41.155019 56.478516 41.210938 C 56.722257 41.505609 56.982865 41.804751 57.269531 42.111328 A 1.0004424 1.0004424 0 0 0 57.357422 42.193359 C 58.853817 43.780895 60.84079 45.460748 63.416016 47.3125 C 64.135719 47.829555 64.91835 48.437041 65.708984 49.140625 C 65.842493 49.259928 65.975807 49.388224 66.109375 49.513672 C 66.319562 49.709896 66.528784 49.918783 66.738281 50.130859 C 67.175481 50.577436 67.60983 51.04991 68.029297 51.572266 C 68.957121 52.712105 69.829115 54.026095 70.548828 55.59375 A 0.50005 0.50005 0 0 0 70.585938 55.708984 C 71.03864 56.694709 71.431749 57.779878 71.740234 58.970703 C 71.842026 59.367176 71.93688 59.773303 72.019531 60.193359 C 72.019783 60.194632 72.01928 60.195992 72.019531 60.197266 A 0.50005 0.50005 0 0 0 72.021484 60.207031 C 72.071484 60.437031 72.122122 60.672886 72.185547 60.916016 A 0.50005 0.50005 0 0 0 72.224609 61.015625 C 73.334911 65.56246 75.829904 68.481403 77.916016 70.507812 C 75.378955 69.603937 71.937971 67.368135 69.943359 61.669922 C 69.735207 61.075173 69.490897 60.524904 69.230469 59.996094 A 0.50005 0.50005 0 0 0 69.1875 59.867188 C 69.140906 59.773999 69.085141 59.692901 69.037109 59.601562 C 68.961177 59.4584 68.880298 59.322077 68.800781 59.183594 C 67.904929 57.604952 66.805649 56.29317 65.583984 55.197266 A 0.50005 0.50005 0 0 0 65.320312 55.074219 C 63.0572 53.166277 60.441398 51.864328 58.111328 50.578125 C 57.371931 50.169941 56.713057 49.785563 56.101562 49.419922 C 55.973961 49.343613 55.854737 49.271682 55.732422 49.197266 C 55.381246 48.983615 55.070844 48.785658 54.761719 48.587891 C 53.368159 47.696057 52.38289 46.970558 51.714844 46.421875 C 50.737038 45.617819 50.400391 45.199219 50.400391 45.199219 A 0.50005 0.50005 0 0 0 49.599609 45.199219 C 49.599609 45.199219 49.520547 45.306634 49.298828 45.529297 A 1.0001 1.0001 0 0 0 49.291016 45.535156 C 49.282892 45.5433 49.26239 45.559928 49.253906 45.568359 C 49.062397 45.758779 48.724939 46.056454 48.300781 46.40625 C 47.966524 46.681387 47.594657 46.98123 47.089844 47.345703 C 47.070544 47.359644 47.043008 47.376556 47.023438 47.390625 C 46.531223 47.744408 45.913953 48.155394 45.238281 48.587891 C 44.929156 48.785658 44.618754 48.983615 44.267578 49.197266 C 44.145272 49.271695 44.026031 49.343597 43.898438 49.419922 C 43.286943 49.785563 42.628069 50.169941 41.888672 50.578125 C 39.499151 51.896595 36.807634 53.229687 34.505859 55.21875 A 0.50005 0.50005 0 0 0 34.46875 55.248047 C 34.462189 55.253742 34.455773 55.259918 34.449219 55.265625 C 34.117771 55.554382 33.797194 55.861305 33.484375 56.179688 C 33.442347 56.222637 33.40102 56.267007 33.359375 56.310547 C 33.075632 56.605888 32.803373 56.91651 32.539062 57.240234 C 32.505491 57.281569 32.470727 57.321459 32.4375 57.363281 C 31.83843 58.113386 31.297445 58.944398 30.830078 59.871094 C 30.829409 59.872423 30.828794 59.87367 30.828125 59.875 A 0.50005 0.50005 0 0 0 30.826172 59.880859 C 30.543072 60.443193 30.279895 61.032022 30.056641 61.669922 C 28.062029 67.368135 24.621045 69.603937 22.083984 70.507812 C 24.296264 68.35897 26.989563 65.230102 27.980469 60.193359 C 28.712134 56.47484 30.231253 53.715703 31.949219 51.597656 A 0.50005 0.50005 0 0 0 31.970703 51.572266 C 32.39017 51.04991 32.824519 50.577436 33.261719 50.130859 C 33.471216 49.918783 33.680438 49.709895 33.890625 49.513672 C 34.024193 49.388224 34.157507 49.259928 34.291016 49.140625 C 35.081646 48.437044 35.864295 47.829545 36.583984 47.3125 C 39.160342 45.460339 41.147934 43.779628 42.644531 42.191406 A 1.0004424 1.0004424 0 0 0 42.730469 42.111328 C 43.033352 41.787408 43.311366 41.4708 43.566406 41.160156 C 43.598667 41.120896 43.642218 41.080171 43.673828 41.041016 C 44.590029 39.906106 45.228655 38.807298 45.603516 37.726562 C 45.603516 37.726562 45.603516 37.724609 45.603516 37.724609 C 45.686066 37.486436 45.756219 37.248204 45.8125 37.011719 C 45.818454 36.987011 45.828338 36.962109 45.833984 36.9375 C 45.878942 36.739 45.909116 36.541305 45.935547 36.34375 C 45.942296 36.293988 45.955416 36.242713 45.960938 36.193359 C 45.968038 36.128851 45.967535 36.064427 45.972656 36 L 49.5 36 A 0.50005 0.50005 0 0 0 49.599609 35.988281 A 0.50005 0.50005 0 0 0 49.646484 35.974609 A 0.50005 0.50005 0 0 0 49.693359 35.957031 A 0.50005 0.50005 0 0 0 49.738281 35.935547 A 0.50005 0.50005 0 0 0 49.820312 35.876953 A 0.50005 0.50005 0 0 0 49.857422 35.84375 A 0.50005 0.50005 0 0 0 49.888672 35.804688 A 0.50005 0.50005 0 0 0 49.960938 35.673828 A 0.50005 0.50005 0 0 0 49.976562 35.626953 A 0.50005 0.50005 0 0 0 49.992188 35.527344 A 0.50005 0.50005 0 0 0 49.992188 35.478516 A 0.50005 0.50005 0 0 0 49.978516 35.378906 A 0.50005 0.50005 0 0 0 49.962891 35.332031 A 0.50005 0.50005 0 0 0 49.945312 35.285156 A 0.50005 0.50005 0 0 0 49.892578 35.199219 A 0.50005 0.50005 0 0 0 49.861328 35.162109 A 0.50005 0.50005 0 0 0 49.787109 35.095703 A 0.50005 0.50005 0 0 0 49.744141 35.068359 A 0.50005 0.50005 0 0 0 49.701172 35.044922 A 0.50005 0.50005 0 0 0 49.654297 35.027344 A 0.50005 0.50005 0 0 0 49.605469 35.013672 A 0.50005 0.50005 0 0 0 49.556641 35.003906 A 0.50005 0.50005 0 0 0 49.5 35 L 46 35 L 46 29 z M 34.150391 32 C 38.380391 32 41 34.629609 41 38.849609 L 41 41.375 A 1.0004424 1.0004424 0 0 0 41 41.474609 L 41 42.419922 C 39.678903 43.684109 38.04476 45.030008 36 46.5 C 35.654499 46.748218 35.288478 47.023874 34.917969 47.314453 C 34.393587 46.754251 33.835899 46.046346 33.447266 45.277344 C 32.237898 42.849305 32 38.476563 32 38.476562 A 0.50005 0.50005 0 0 0 31.511719 38 A 0.50005 0.50005 0 0 0 31.083984 38.222656 C 31.083984 38.222656 29 41.333333 29 45.5 C 29 47.392408 29.675073 49.269451 30.964844 51.230469 C 30.109971 52.322276 29.306418 53.569951 28.625 55.013672 C 24.951562 55.090711 22.041448 56.247348 20.064453 58.357422 C 18.026712 60.532331 17 63.666215 17 67.5 A 0.50005 0.50005 0 0 0 17.970703 67.669922 C 18.94871 64.980402 20.138117 63.320975 21.412109 62.332031 C 22.686101 61.343088 24.056967 61 25.5 61 C 26.036881 61 26.412602 61.066922 26.732422 61.146484 C 25.403974 66.1416 22.2339 69.310978 20.169922 71.125 A 0.50005 0.50005 0 0 0 20.589844 71.992188 C 23.263433 71.507613 28.414023 69.387629 31 62 C 31.137733 61.60646 31.290682 61.231288 31.453125 60.869141 C 31.956288 61.290189 32.468833 61.865767 32.925781 62.941406 C 33.527357 64.357493 34.001953 66.652133 34.001953 70.5 A 0.50005 0.50005 0 0 0 34.78125 70.914062 C 34.78125 70.914062 35.15269 70.658925 35.603516 70.142578 C 36.054342 69.626231 36.61396 68.828863 37.078125 67.689453 A 0.50016003 0.50016003 0 1 0 36.152344 67.310547 C 35.757035 68.280931 35.300157 68.913148 34.925781 69.357422 C 34.830351 66.195965 34.446604 63.960681 33.847656 62.550781 C 33.273984 61.200378 32.550751 60.510055 31.921875 60.009766 C 32.699496 58.567148 33.673351 57.383397 34.771484 56.369141 C 35.404589 57.032216 36.160967 58.023217 36.617188 59.636719 A 0.50048114 0.50048114 0 0 0 37.580078 59.363281 C 37.084233 57.609639 36.243044 56.429111 35.527344 55.666016 C 37.221516 54.281379 39.123747 53.228182 41 52.208984 L 41 68.349609 C 41 83.369609 26.420391 85 20.150391 85 C 19.160391 85 18.550937 84.949219 18.460938 84.949219 C 13.330938 84.949219 9 80.370937 9 74.960938 C 9 65.650937 10.980547 57.409297 15.060547 49.779297 C 24.310547 32.499297 33.170391 32 34.150391 32 z M 65.849609 32 C 66.829609 32 75.689453 32.499297 84.939453 49.779297 C 89.019453 57.409297 91 65.650937 91 74.960938 C 91 80.370938 86.670937 84.949219 81.460938 84.949219 C 81.450938 84.949219 80.839609 85 79.849609 85 C 73.579609 85 59 83.369609 59 68.349609 L 59 52.210938 C 60.869655 53.22682 62.765426 54.274917 64.455078 55.652344 C 63.369579 56.819922 62 59.008488 62 62.5 C 62 65.583333 62.774916 67.682152 63.570312 69.007812 C 64.365709 70.333474 65.222656 70.916016 65.222656 70.916016 A 0.50005 0.50005 0 0 0 66 70.5 C 66 66.640812 66.475386 64.344548 67.080078 62.929688 C 67.535299 61.864559 68.045706 61.291437 68.546875 60.871094 C 68.709038 61.232734 68.862474 61.607051 69 62 C 71.585977 69.387629 76.736567 71.507612 79.410156 71.992188 A 0.50005 0.50005 0 0 0 79.830078 71.125 C 77.765879 69.309865 74.595317 66.141384 73.267578 61.146484 C 73.587384 61.066911 73.963119 61 74.5 61 C 75.943033 61 77.313899 61.343088 78.587891 62.332031 C 79.861883 63.320975 81.05129 64.980402 82.029297 67.669922 A 0.50005 0.50005 0 0 0 83 67.5 C 83 63.666215 81.973288 60.532331 79.935547 58.357422 C 77.958552 56.247348 75.048438 55.09071 71.375 55.013672 C 70.693578 53.569948 69.890033 52.322278 69.035156 51.230469 C 70.324927 49.269454 71 47.392408 71 45.5 C 71 41.333333 68.916016 38.222656 68.916016 38.222656 A 0.50005 0.50005 0 0 0 68.492188 38 A 0.50005 0.50005 0 0 0 68 38.476562 C 68 38.476562 67.761438 42.847045 66.552734 45.275391 C 66.164112 46.044863 65.606529 46.75381 65.082031 47.314453 C 64.711526 47.023877 64.345495 46.748213 64 46.5 L 64 46.501953 C 61.955233 45.031605 60.321095 43.684578 59 42.419922 L 59 41.417969 L 59 38.849609 C 59 34.629609 61.619609 32 65.849609 32 z M 51.5 35 A 0.50005 0.50005 0 1 0 51.5 36 L 52.5 36 A 0.50005 0.50005 0 1 0 52.5 35 L 51.5 35 z M 31.173828 40.267578 C 31.328439 41.787621 31.637146 43.884437 32.552734 45.722656 A 0.50005 0.50005 0 0 0 32.552734 45.724609 C 33.000312 46.610812 33.619679 47.308349 34.193359 47.917969 C 33.360224 48.618858 32.510142 49.437264 31.677734 50.390625 C 30.596524 48.664877 30 47.065586 30 45.5 C 30 43.151692 30.616712 41.460122 31.173828 40.267578 z M 68.826172 40.267578 C 69.383288 41.460122 70 43.151692 70 45.5 C 70 47.065586 69.403476 48.664922 68.322266 50.390625 C 67.489856 49.437264 66.63977 48.618853 65.806641 47.917969 C 66.380321 47.308349 66.999688 46.610812 67.447266 45.724609 A 0.50005 0.50005 0 0 0 67.447266 45.722656 C 68.362854 43.884437 68.671561 41.787621 68.826172 40.267578 z M 28.179688 56.03125 C 27.692247 57.230547 27.286104 58.545944 27 60 C 26.988183 60.060068 26.971334 60.116197 26.958984 60.175781 C 26.567885 60.080259 26.111206 60 25.5 60 C 23.893033 60 22.262336 60.406912 20.798828 61.542969 C 19.939705 62.209868 19.169902 63.215876 18.451172 64.421875 C 18.862263 62.274325 19.544776 60.373229 20.792969 59.041016 C 22.48276 57.237478 24.940248 56.186318 28.179688 56.03125 z M 71.861328 56.126953 C 75.042144 56.300476 77.53851 57.260179 79.207031 59.041016 C 80.455224 60.373229 81.137737 62.274325 81.548828 64.421875 C 80.830098 63.215876 80.060295 62.209868 79.201172 61.542969 C 77.737664 60.406912 76.106967 60 74.5 60 C 73.841084 60 73.456836 60.124439 73.052734 60.230469 C 73.035759 60.154305 73.016895 60.081615 73 60.003906 L 73 60 C 72.72166 58.585403 72.331081 57.30008 71.861328 56.126953 z M 65.269531 56.359375 C 65.594063 56.659689 65.909573 56.974146 66.210938 57.306641 C 66.913086 58.102106 67.552273 58.985057 68.09375 59.998047 C 67.464817 60.497779 66.73968 61.185705 66.162109 62.537109 C 65.566159 63.931517 65.184444 66.151162 65.082031 69.263672 C 64.835467 69.011577 64.771004 69.061049 64.429688 68.492188 C 63.725084 67.317848 63 65.416667 63 62.5 C 63 59.144108 64.310074 57.335402 65.269531 56.359375 z M 37.460938 60.992188 A 0.50005 0.50005 0 0 0 36.960938 61.541016 C 36.985843 61.847549 37 62.166449 37 62.5 A 0.50005 0.50005 0 1 0 38 62.5 C 38 62.139551 37.986084 61.792451 37.958984 61.458984 A 0.50005 0.50005 0 0 0 37.460938 60.992188 z"/></svg>