<svg xmlns="http://www.w3.org/2000/svg"  viewBox="0 0 100 100" width="250px" height="250px"><path d="M54.309,61.507l-6.467-1.149l-1.413-0.871l-0.467-1.527c3.129-2.406,5.21-6.613,5.21-11.394	c0-2.129-0.413-4.144-1.147-5.937c0.07-0.341,0.05-0.793-0.244-1.324c-0.751-1.361-1.831-2.727-3.126-3.835	c0.002-0.059,0.009-0.116,0.009-0.175c0-3.729-3.034-6.763-6.763-6.763c-3.729,0-6.763,3.034-6.763,6.763	c0,0.101,0.011,0.2,0.015,0.3c-3.626,2.931-5.651,8.279-5.651,15.48v1.188l1.186-0.063c0.059-0.003,0.396-0.024,0.931-0.102	c0.901,2.4,2.367,4.43,4.196,5.844l-0.504,1.583l-1.351,0.833l-6.469,1.149c-4.261,0.053-9.62,3.334-10.227,7.62l-1.377,16.792	l2.246,0.185l0.1-1.216l1.271-15.51c0.429-3.025,4.807-5.617,8.09-5.617l4.353-0.768l5.025,10.049l3.802-2.693v14.54v1.127h2.254	v-1.127v-14.54l3.802,2.693l5.019-10.037l4.16,0.739l0.198,0.018c3.282,0,7.66,2.592,8.082,5.551l1.277,15.576l0.1,1.216	l2.246-0.185l-1.383-16.858C63.928,64.841,58.569,61.56,54.309,61.507z M47.448,62.763l-3.459,6.92l-2.137-1.514l-0.535-0.379	l0.655-1.419L45.89,62.3l0.252-0.262l0.048-0.05l0.834,0.514L47.448,62.763z M35.813,69.683l-3.459-6.92l0.444-0.274l0.813-0.501	l0.045,0.046l0.25,0.259l3.925,4.078l0.655,1.419l-0.536,0.38L35.813,69.683z M39.901,30.785c1.976,0,3.654,1.279,4.262,3.051	c-1.06-0.499-2.192-0.796-3.359-0.796c-0.166,0-0.328,0.007-0.491,0.012c-0.137-0.006-0.273-0.012-0.411-0.012	c-1.537,0-3.002,0.372-4.339,1.043C36.092,32.184,37.834,30.785,39.901,30.785z M29.866,48.389c0.368-4.58,1.706-8.071,3.887-10.29	c0.282-0.287,0.579-0.549,0.888-0.792c0.306-0.241,0.627-0.459,0.959-0.658c0.081-0.048,0.165-0.092,0.247-0.139	c1.296-0.719,2.785-1.123,4.451-1.191c0.169-0.007,0.332-0.025,0.505-0.025c1.198,0,2.379,0.459,3.446,1.172	c0.329,0.22,0.647,0.465,0.952,0.728c0.307,0.264,0.599,0.547,0.876,0.842c0.597,0.637,1.12,1.329,1.534,2.018	c-0.091,0.033-0.195,0.068-0.303,0.102c-0.264,0.085-0.565,0.171-0.838,0.249c-2.024,0.581-5.084,1.459-7.536,4.297	c-2.452,2.838-5.568,4.149-7.741,4.749c-0.406,0.112-0.777,0.2-1.106,0.268c-0.106,0.021-0.212,0.044-0.309,0.061	C29.797,49.303,29.83,48.844,29.866,48.389z M40.641,46.175c2.013-2.33,4.578-3.066,6.451-3.603	c0.413-0.118,0.787-0.228,1.127-0.347c0.448,1.337,0.696,2.802,0.696,4.34c0,3.713-1.45,7.002-3.672,9.057	c-0.45,0.416-0.931,0.78-1.44,1.087c-1.183,0.714-2.504,1.127-3.904,1.127c-1.4,0-2.721-0.412-3.904-1.127	c-0.509-0.308-0.991-0.672-1.442-1.089c-1.133-1.048-2.062-2.415-2.702-4C34.336,50.931,37.828,49.43,40.641,46.175z M35.794,59.158	c0.285,0.134,0.576,0.256,0.872,0.363c1.025,0.369,2.11,0.57,3.234,0.57c1.123,0,2.208-0.201,3.233-0.57	c0.296-0.107,0.586-0.228,0.871-0.363l0.174,0.549l0.216,0.675c-0.019,0.103-0.062,0.22-0.116,0.341l-0.119,0.124l-0.941,0.978	l-3.134,3.256l-0.184,0.398l-0.184-0.398l-3.137-3.26l-0.938-0.974l-0.123-0.128c-0.053-0.12-0.096-0.235-0.114-0.337l0.216-0.675	L35.794,59.158z M22.993,84.888v1.127h-2.254v-1.127L20.738,72.49h2.254L22.993,84.888z M60.193,84.888l0.101,1.009l-2.243,0.225	l-0.123-1.234l-1.229-12.28l2.243-0.225L60.193,84.888z M79.233,18.386c-0.384,0-0.749,0.055-1.1,0.149	c-2.859-2.875-6.816-4.657-11.182-4.657c-4.366,0-8.323,1.783-11.182,4.657c-0.35-0.094-0.716-0.149-1.1-0.149	c-3.181,0-6.879,2.462-6.879,5.636c0,2.017,1.495,3.744,3.401,4.737c0.002,0.018,0.002,0.035,0.003,0.053	c-0.015,0.281-0.023,0.563-0.023,0.846c0,7.412,5.138,13.643,12.039,15.328l0.091,1.64l2.251-0.124l-0.059-1.064l-0.004-0.07	l-0.063-1.136l-0.063-1.144l-0.298-5.383l0.484-0.497c1.026-1.056,1.823-1.049,2.931,0.024l0.467,0.453l-0.303,5.391l-0.064,1.145	l-0.064,1.141l-0.004,0.078l-0.06,1.063l2.251,0.126l0.094-1.665c6.849-1.721,11.935-7.929,11.935-15.304	c0-0.123-0.006-0.244-0.009-0.365c0.051-0.19,0.082-0.386,0.095-0.586c1.856-1.001,3.296-2.704,3.296-4.684	C86.113,20.848,82.414,18.386,79.233,18.386z M70.93,42.585l0.333-5.914l0.654-1.606c0.512-1.256,0.632-2.622,0.351-3.951	l-0.366-1.721c0.029-0.552,0.287-1.157,0.768-1.797c0.729-0.967,1.113-2.092,1.113-3.253c0-0.25-0.023-0.496-0.057-0.739	c1.064-0.406,1.971-1.047,2.808-1.641c0.355-0.252,0.691-0.49,1.017-0.694c0.935,1.178,1.676,2.514,2.179,3.962	c-0.276-0.052-0.562-0.082-0.856-0.082c-2.18,0-3.953,1.517-3.953,3.381s1.773,3.381,3.953,3.381c0.513,0,1.003-0.086,1.453-0.239	C79.55,36.849,75.83,41.075,70.93,42.585z M53.572,31.637c0.479,0.177,1.006,0.275,1.56,0.275c2.18,0,3.953-1.517,3.953-3.381	s-1.773-3.381-3.953-3.381c-0.334,0-0.657,0.04-0.967,0.107c0.503-1.458,1.248-2.802,2.188-3.986	c0.325,0.204,0.662,0.442,1.016,0.694c0.863,0.612,1.8,1.274,2.908,1.678c-0.193,1.458,0.211,2.9,1.168,4.097	c0.41,0.513,0.631,1.005,0.658,1.465l-0.392,1.945c-0.264,1.309-0.136,2.655,0.37,3.892l0.668,1.632l0.329,5.944	C58.116,41.13,54.342,36.867,53.572,31.637z M55.797,27.502c0.596,0.179,1.035,0.583,1.035,1.029c0,0.446-0.439,0.85-1.035,1.03	c-0.206,0.062-0.431,0.098-0.664,0.098c-0.812,0-1.528-0.423-1.67-0.943c-0.017-0.061-0.03-0.122-0.03-0.184	c0-0.098,0.028-0.193,0.067-0.285c0.202-0.472,0.875-0.842,1.632-0.842C55.366,27.404,55.59,27.44,55.797,27.502z M66.952,16.132	c3.469,0,6.636,1.314,9.032,3.469c-0.255,0.171-0.507,0.347-0.756,0.524c-0.756,0.537-1.485,1.053-2.273,1.359	c-0.316-0.507-0.718-0.976-1.201-1.393c-1.57-1.353-3.726-1.94-5.932-1.617c-2.037,0.303-3.806,1.471-4.782,3.041	c-0.822-0.301-1.58-0.833-2.365-1.39c-0.249-0.177-0.501-0.353-0.756-0.524C60.315,17.446,63.482,16.132,66.952,16.132z M78.874,29.658c-0.273,0-0.533-0.053-0.767-0.136c-0.541-0.193-0.931-0.572-0.931-0.991c0-0.419,0.39-0.798,0.931-0.991	c0.234-0.084,0.494-0.136,0.767-0.136c0.638,0,1.214,0.264,1.503,0.628c0.121,0.153,0.197,0.322,0.197,0.499	c0,0.135-0.045,0.264-0.117,0.386C80.207,29.34,79.576,29.658,78.874,29.658z M50.045,24.022c0-1.545,2.05-3.007,3.923-3.318	c-1.153,1.667-1.993,3.565-2.436,5.611C50.665,25.693,50.045,24.871,50.045,24.022z M64.539,35.092l-0.371-0.906	c-0.338-0.824-0.422-1.72-0.246-2.592l0.417-2.071l0.022-0.222c0-1.012-0.389-2.011-1.156-2.971	c-0.397-0.496-0.814-1.284-0.706-2.308c0.011-0.102,0.021-0.204,0.042-0.311c0.127-0.62,0.477-1.197,0.964-1.684	c0.671-0.673,1.609-1.169,2.648-1.323c1.55-0.23,3.054,0.167,4.129,1.094c0.041,0.035,0.076,0.074,0.116,0.109	c0.64,0.597,1.028,1.333,1.112,2.115c0.012,0.107,0.019,0.214,0.019,0.322c0,0.668-0.228,1.324-0.66,1.898	c-0.813,1.08-1.225,2.176-1.225,3.257l0.418,2.085c0.189,0.884,0.108,1.794-0.232,2.63l-0.366,0.898	C67.84,33.87,66.102,33.865,64.539,35.092z M82.372,26.315c-0.443-2.045-1.283-3.944-2.437-5.611	c1.873,0.311,3.924,1.773,3.924,3.318C83.859,24.871,83.239,25.693,82.372,26.315z M68.131,22.895h1.13v2.254h-1.13v2.254h-2.255	v-2.254h-1.13v-2.254h1.13H68.131z M25.247,83.761h11.271v-6.763H25.247V83.761z M27.502,79.252h6.763v2.254h-6.763V79.252z"/></svg>