<svg xmlns="http://www.w3.org/2000/svg"  viewBox="0 0 128 128" width="250px" height="250px"><path d="M 82.03125 0.00390625 A 23.13 23.13 0 0 0 65.320312 6.7304688 L 64 8 L 62.679688 6.7304688 A 23.07 23.07 0 0 0 30.060547 39.359375 L 62.589844 71.880859 A 2 2 0 0 0 65.410156 71.880859 L 97.939453 39.359375 A 23.11 23.11 0 0 0 97.939453 6.7304688 A 23.13 23.13 0 0 0 82.03125 0.00390625 z M 81.292969 3.9570312 A 19.13 19.13 0 0 1 95.109375 9.5292969 A 19.08 19.08 0 0 1 95.109375 36.529297 L 64 67.640625 L 32.890625 36.560547 A 19.08 19.08 0 0 1 32.890625 9.5605469 A 18.89 18.89 0 0 1 46.369141 4 A 18.93 18.93 0 0 1 59.859375 9.5605469 L 62.560547 12.259766 A 2 2 0 0 0 65.380859 12.259766 L 68.109375 9.5292969 A 19.13 19.13 0 0 1 81.292969 3.9570312 z M 61.900391 16 A 2 2 0 0 0 60.050781 17.560547 L 55.689453 36.730469 L 55.109375 36.339844 C 54.359375 35.839844 53.599766 36 52.759766 36 A 8.07 8.07 0 0 0 48 34 A 8.07 8.07 0 0 0 43.240234 36 L 43 36 A 2 2 0 0 0 43 40 L 44 40 A 2 2 0 0 0 45.410156 39.419922 A 5 5 0 0 1 48 38 A 5 5 0 0 1 50.589844 39.410156 A 2 2 0 0 0 52 40 L 53.390625 40 L 55.939453 41.660156 A 2 2 0 0 0 59 40.439453 L 61.429688 29.539062 L 64 50.25 A 2 2 0 0 0 65.730469 52 A 2 2 0 0 0 67.849609 50.769531 L 72.330078 40 L 74 40 A 2 2 0 0 0 75.410156 39.419922 A 5 5 0 0 1 78 38 A 5 5 0 0 1 80.589844 39.410156 A 2 2 0 0 0 82 40 L 85 40 A 2 2 0 0 0 85 36 L 82.759766 36 A 8.07 8.07 0 0 0 78 34 A 8.07 8.07 0 0 0 73.240234 36 L 71 36 A 2 2 0 0 0 69.169922 37.230469 L 67.070312 42.279297 L 64 17.75 A 2 2 0 0 0 62.099609 16 A 2 2 0 0 0 61.900391 16 z M 8.8144531 68.140625 C 6.5345703 68.221895 4.2298437 69.160234 2.3398438 71.740234 C -0.66015625 75.880234 0.50023438 82.319062 4.7402344 85.539062 C 11.740234 90.879063 35.740781 108.54047 46.050781 113.73047 C 56.360781 118.92047 60.79 120 72 120 L 108 120 L 108 126 A 2 2 0 0 0 110 128 L 126 128 A 2 2 0 0 0 126 124 L 112 124 L 112 85 L 126 85 A 2 2 0 0 0 126 81 L 110 81 C 109.24 81.06 102.69 76.76 96.25 76 C 88.25 75.08 81.370313 77.340703 75.820312 79.220703 A 43.51 43.51 0 0 1 69.669922 81 C 62.069922 82.26 51.37 82 50 82 C 41.3 82 40 87.64 40 91 C 40 98.37 49.3 101 58 101 C 65.85 101 82.710859 102 82.880859 102 A 2.0035968 2.0035968 0 1 0 83.119141 98 C 82.419141 98 66 97 58 97 C 51 97 44 95.14 44 91 C 44 88.53 44.71 86 50 86 C 51.33 86 62.340078 86.3 70.330078 85 A 45 45 0 0 0 77.099609 83 C 82.259609 81.25 88.69 79.07 95.75 80 A 28.28 28.28 0 0 1 108 85 L 108 116 L 72 116 C 61.35 116 57.740625 115.13094 47.890625 110.21094 C 37.890625 105.21094 14.239219 87.610391 7.1992188 82.400391 A 6.08 6.08 0 0 1 5.5996094 74.199219 C 7.1796094 72.199219 9.4507031 70.800937 15.970703 74.710938 C 20.970703 77.710938 34.870703 85.710938 34.970703 85.710938 A 2.0068881 2.0068881 0 0 0 36.970703 82.230469 C 36.830703 82.150469 22.970703 74.230469 17.970703 71.230469 C 16.345703 70.249219 12.614258 68.005176 8.8144531 68.140625 z"/></svg>