<svg xmlns="http://www.w3.org/2000/svg"  viewBox="0 0 64 64" width="250px" height="250px"><path d="M 29 5 A 2 2 0 0 0 27 7 L 27 21.490234 A 3.461 3.461 0 0 1 25.951172 21.916016 C 25.47085 16.275267 21.273957 12 16 12 L 14.845703 12 A 14.18 14.18 0 0 0 8.6757812 13.744141 C 5.7427813 15.329141 1.9585937 18.706641 0.55859375 25.806641 L 2.5214844 26.193359 C 4.8794844 14.200359 14.445703 14 14.845703 14 L 16 14 C 20.486 14 24 17.953 24 23 A 9.493 9.493 0 0 1 22.408203 28.300781 A 1 1 0 0 0 22.318359 29.244141 A 9.631 9.631 0 0 1 23.076172 33 A 9.493 9.493 0 0 1 21.486328 38.304688 A 1 1 0 0 0 21.396484 39.248047 A 9.629 9.629 0 0 1 22.154297 43.003906 C 22.154297 47.965906 18.461734 52.003906 13.927734 52.003906 C 13.910734 52.003906 13.825672 52.001328 13.638672 51.986328 A 7.815 7.815 0 0 1 9.3710938 50.5 C 6.0080938 48.455 2 43.589 2 32 A 1 1 0 0 0 0 32 C 1.1842379e-15 44.519 4.5323906 49.900016 8.2753906 52.166016 A 9.681 9.681 0 0 0 13.519531 53.978516 C 13.755531 53.999516 13.896922 54 13.919922 54 L 13.923828 54 C 19.564828 54 24.154297 49.065 24.154297 43 A 11.6 11.6 0 0 0 23.433594 38.962891 A 11.656 11.656 0 0 0 24.382812 36.958984 A 6.424 6.424 0 0 0 27 36.039062 L 27 57 A 2 2 0 0 0 29 59 L 31 59 A 2 2 0 0 0 32 58.730469 A 2 2 0 0 0 33 59 L 35 59 A 2 2 0 0 0 37 57 L 37 44 L 35 44 L 35 57 L 33 57 L 33 36.662109 A 13.109 13.109 0 0 0 40.277344 39.90625 A 11.6 11.6 0 0 0 39.849609 43 C 39.849609 49.065 44.439078 54 50.080078 54 C 50.105078 54 50.2435 54.000422 50.4375 53.982422 A 9.638 9.638 0 0 0 55.667969 52.205078 C 58.113969 50.720078 61.367609 47.612141 62.974609 41.244141 L 61.035156 40.755859 C 59.877156 45.338859 57.721406 48.617109 54.566406 50.537109 A 7.776 7.776 0 0 1 50.314453 51.986328 C 50.176453 52.000328 50.089172 52 50.076172 52 C 45.538172 52 41.845703 47.962 41.845703 43 A 9.629 9.629 0 0 1 42.603516 39.244141 A 1 1 0 0 0 42.513672 38.300781 A 9.493 9.493 0 0 1 40.923828 33 A 9.631 9.631 0 0 1 41.681641 29.244141 A 1 1 0 0 0 41.591797 28.300781 A 9.493 9.493 0 0 1 40 23 C 40 17.953 43.514 14 48 14 L 49.150391 14 C 49.675391 14 62 14.279 62 32 A 39.23 39.23 0 0 1 61.447266 38.824219 L 63.417969 39.175781 A 41.173 41.173 0 0 0 64 32 C 64 12.229 49.300297 12 49.154297 12 L 48 12 C 42.783774 12 38.62365 16.183336 38.068359 21.732422 A 2.572 2.572 0 0 1 37 20.728516 L 37 7 A 2 2 0 0 0 35 5 L 33 5 A 2 2 0 0 0 32 5.2695312 A 2 2 0 0 0 31 5 L 29 5 z M 29 7 L 31 7 L 31 29 A 1.006 1.006 0 0 0 31.167969 29.554688 C 31.333998 29.804206 35.100514 35.370265 39.314453 35.941406 A 11.656 11.656 0 0 0 40.003906 37.886719 A 10.722 10.722 0 0 1 32.857422 33.484375 A 1 1 0 0 0 31 34 L 31 57 L 29 57 L 29 34 A 1 1 0 0 0 27.292969 33.292969 A 5.261 5.261 0 0 1 24.931641 34.798828 A 11.656 11.656 0 0 0 25.0625 32.886719 C 27.914041 32.296094 28.905306 29.45173 28.949219 29.316406 A 1 1 0 0 0 29 29 L 29 7 z M 33 7 L 35 7 L 35 21 A 1 1 0 0 0 35.099609 21.447266 A 4.7 4.7 0 0 0 38.039062 23.837891 A 11.5 11.5 0 0 0 38.371094 25.912109 A 5.561 5.561 0 0 1 36.707031 25.292969 A 1 1 0 0 0 35 26 L 35 30 L 37 30 L 37 27.605469 A 10.186 10.186 0 0 0 39.115234 27.972656 A 11.5 11.5 0 0 0 39.646484 28.962891 A 11.656 11.656 0 0 0 38.970703 33.839844 C 36.553655 33.120656 34.038917 30.163001 33 28.689453 L 33 7 z M 15 16 C 8.417 16 5.2130781 23.299469 5.0800781 23.605469 L 6.9199219 24.394531 C 6.9479219 24.330531 9.721 18 15 18 L 15 16 z M 49 16 L 49 18 C 54.257 18 57.054031 24.332391 57.082031 24.400391 L 58.919922 23.605469 C 58.786922 23.299469 55.583 16 49 16 z M 27 23.693359 L 27 25.449219 C 26.742431 25.581189 26.324216 25.749612 25.630859 25.869141 A 11.5 11.5 0 0 0 25.957031 23.949219 A 5.311 5.311 0 0 0 27 23.693359 z M 27 27.601562 L 27 28.814453 A 3.368 3.368 0 0 1 24.863281 30.841797 A 11.656 11.656 0 0 0 24.357422 28.962891 A 11.5 11.5 0 0 0 24.876953 27.962891 C 25.752358 27.904543 26.453018 27.770325 27 27.601562 z M 0.23046875 27.880859 C 0.15146875 28.545859 0.091734375 29.240313 0.052734375 29.945312 L 2.0527344 30.054688 C 2.0900677 29.383354 2.1447969 28.738474 2.2167969 28.119141 L 0.23046875 27.880859 z M 35 40 L 35 42 L 37 42 L 37 40 L 35 40 z"/></svg>