<?xml version="1.0"?><svg xmlns="http://www.w3.org/2000/svg"  viewBox="0 0 50 50" width="250px" height="250px">    <path d="M42.081,6.309C39.294,3.49,35.293,2,30.512,2c-1.743,0-3.318,0.198-4.721,0.566c1.672,1.212,3.099,2.811,4.141,4.722 c0.265,0.485,0.086,1.092-0.399,1.356c-0.151,0.083-0.315,0.122-0.478,0.122c-0.354,0-0.697-0.188-0.879-0.521 C26.618,5.388,23,2,18.788,2.032C11,2,4,8.182,4,16.75c0,3.665,1.504,6.289,3.097,9.067c1.084,1.891,2.205,3.846,2.86,6.225 c0.381,1.417,0.719,2.933,1.045,4.398C12.328,42.385,13.58,48,17.756,48c2.908,0,4.645-2.053,4.645-5.492 c0-4.27,0.927-9.949,1.619-13.822c0.13-0.63,0.604-0.854,1.014-0.854c0.007,0,0.015,0,0.022,0c0.184,0.004,0.793,0.073,0.919,0.83 c1.077,5.902,1.624,10.56,1.624,13.845c0,3.439,1.736,5.492,4.645,5.492c4.158,0,5.41-5.592,6.734-11.512 c0.333-1.484,0.676-3.02,1.063-4.439c0.657-2.385,1.778-4.341,2.862-6.231c1.593-2.779,3.097-5.403,3.097-9.056 C46.046,12.562,44.691,8.947,42.081,6.309z"/></svg>