<svg xmlns="http://www.w3.org/2000/svg"  viewBox="0 0 48 48" width="250px" height="250px" baseProfile="basic"><linearGradient id="y4DIm6YSkRVXQC2YLIiGPa" x1="-151.961" x2="-176.295" y1="-188" y2="-188" gradientTransform="translate(210 212)" gradientUnits="userSpaceOnUse"><stop offset="0" stop-color="#faf3df"/><stop offset="1" stop-color="#255b70"/></linearGradient><path fill="url(#y4DIm6YSkRVXQC2YLIiGPa)" d="M41,8l-5,32h6c2.76,0,5-2.24,5-5V8H41z"/><linearGradient id="y4DIm6YSkRVXQC2YLIiGPb" x1="37.755" x2="46.365" y1="48.232" y2="24.576" gradientUnits="userSpaceOnUse"><stop offset="0" stop-color="#255b70" stop-opacity="0"/><stop offset="1" stop-color="#255b70"/></linearGradient><path fill="url(#y4DIm6YSkRVXQC2YLIiGPb)" d="M41,28.84L36,40h6c0.47,0,0.93-0.07,1.37-0.19l-0.003-0.003C45.464,39.215,47,37.287,47,35	v-0.17L41,28.84z"/><linearGradient id="y4DIm6YSkRVXQC2YLIiGPc" x1="-162.684" x2="-188.528" y1="-188" y2="-188" gradientTransform="translate(210 212)" gradientUnits="userSpaceOnUse"><stop offset="0" stop-color="#faf3df"/><stop offset="1" stop-color="#255b70"/></linearGradient><path fill="url(#y4DIm6YSkRVXQC2YLIiGPc)" d="M35,8l-5,32h6c2.76,0,5-2.24,5-5V8H35z"/><linearGradient id="y4DIm6YSkRVXQC2YLIiGPd" x1="31.704" x2="40.314" y1="48.371" y2="24.715" gradientUnits="userSpaceOnUse"><stop offset="0" stop-color="#255b70" stop-opacity="0"/><stop offset="1" stop-color="#255b70"/></linearGradient><path fill="url(#y4DIm6YSkRVXQC2YLIiGPd)" d="M35,28.84L30,40h6c0.47,0,0.93-0.07,1.37-0.19l-0.003-0.003C39.464,39.215,41,37.287,41,35	v-0.17L35,28.84z"/><linearGradient id="y4DIm6YSkRVXQC2YLIiGPe" x1="16.386" x2="24.532" y1="36.821" y2="-27.884" gradientUnits="userSpaceOnUse"><stop offset="0" stop-color="#faf3df"/><stop offset="1" stop-color="#84b8aa"/></linearGradient><path fill="url(#y4DIm6YSkRVXQC2YLIiGPe)" d="M35,8H6c-2.761,0-5,2.239-5,5v27h29c2.761,0,5-2.239,5-5V8z"/><linearGradient id="y4DIm6YSkRVXQC2YLIiGPf" x1="34.057" x2="24.24" y1="26.433" y2="36.25" gradientUnits="userSpaceOnUse"><stop offset="0" stop-color="#76bfbd" stop-opacity="0"/><stop offset="1" stop-color="#1b6166"/></linearGradient><path fill="url(#y4DIm6YSkRVXQC2YLIiGPf)" d="M35,34.83V35c0,2.29-1.54,4.22-3.64,4.81L20.23,28.68l4.46-4.15L35,34.83z"/><linearGradient id="y4DIm6YSkRVXQC2YLIiGPg" x1="8.747" x2="24.114" y1="56.371" y2="14.152" gradientUnits="userSpaceOnUse"><stop offset="0" stop-color="#76bfbd" stop-opacity="0"/><stop offset="1" stop-color="#1b6166"/></linearGradient><path fill="url(#y4DIm6YSkRVXQC2YLIiGPg)" d="M31.37,39.81C30.93,39.93,30.47,40,30,40H1v-7.937L12.61,21.06L31.37,39.81z"/><linearGradient id="y4DIm6YSkRVXQC2YLIiGPh" x1="11.82" x2="29.606" y1="28.18" y2="10.394" gradientUnits="userSpaceOnUse"><stop offset="0" stop-color="#e8ddb4" stop-opacity="0"/><stop offset="1" stop-color="#8f4c5e"/></linearGradient><circle cx="25" cy="15" r="3" fill="url(#y4DIm6YSkRVXQC2YLIiGPh)"/></svg>