<svg xmlns="http://www.w3.org/2000/svg"  viewBox="0 0 48 48" width="256px" height="256px"><path d="M 24 2 C 18.973724 2 15 6.549047 15 12 C 15 17.450953 18.973724 22 24 22 C 29.026276 22 33 17.450953 33 12 C 33 6.549047 29.026276 2 24 2 z M 24 4 C 27.810286 4 31 7.5098277 31 12 C 31 16.490172 27.810286 20 24 20 C 20.189714 20 17 16.490172 17 12 C 17 7.5098277 20.189714 4 24 4 z M 24 24 C 15.212416 24 7.4039027 29.629187 4.625 37.964844 L 4.3671875 38.734375 C 3.5125794 41.296881 5.4611146 44 8.1621094 44 L 27 44 A 1.0001 1.0001 0 1 0 27 42 L 8.1621094 42 C 6.7671042 42 5.82228 40.690682 6.2636719 39.367188 L 6.5214844 38.597656 C 9.0305816 31.071313 16.065584 26 24 26 C 28.543381 26 32.788771 27.668422 36.0625 30.503906 C 32.54175 31.726834 30 35.070725 30 39 C 30 43.958717 34.041279 48 39 48 C 43.958721 48 48 43.958717 48 39 C 48 34.041283 43.958721 30 39 30 C 38.823927 30 38.652136 30.017293 38.478516 30.027344 C 34.728225 26.257997 29.561644 24 24 24 z M 39 32 C 42.877841 32 46 35.122161 46 39 C 46 42.877839 42.877841 46 39 46 C 35.122159 46 32 42.877839 32 39 C 32 35.122161 35.122159 32 39 32 z M 41.490234 35.486328 A 1.0001 1.0001 0 0 0 40.792969 35.792969 L 39 37.585938 L 37.207031 35.792969 A 1.0001 1.0001 0 0 0 36.490234 35.490234 A 1.0001 1.0001 0 0 0 35.792969 37.207031 L 37.585938 39 L 35.792969 40.792969 A 1.0001 1.0001 0 1 0 37.207031 42.207031 L 39 40.414062 L 40.792969 42.207031 A 1.0001 1.0001 0 1 0 42.207031 40.792969 L 40.414062 39 L 42.207031 37.207031 A 1.0001 1.0001 0 0 0 41.490234 35.486328 z"/></svg>