<svg xmlns="http://www.w3.org/2000/svg"  viewBox="0 0 72 72" width="256px" height="256px"><path d="M 17.335938 12 C 15.079937 12 13.10325 12.477641 11.40625 13.431641 C 9.70925 14.385641 8.3836875 15.70925 7.4296875 17.40625 C 6.4756875 19.10325 5.9980469 21.081891 5.9980469 23.337891 L 5.9980469 34.691406 C 5.9980469 36.948406 6.4980469 38.924094 7.4980469 40.621094 C 8.4980469 42.318094 9.80125 43.643656 11.40625 44.597656 C 13.01125 45.551656 14.711766 46.027344 16.509766 46.027344 L 17.074219 46.027344 L 17.074219 49.880859 C 17.074219 51.439859 17.491172 52.662734 18.326172 53.552734 C 19.161172 54.442734 20.285266 54.888672 21.697266 54.888672 C 22.670266 54.888672 23.614297 54.680578 24.529297 54.267578 C 25.446297 53.855578 26.493969 53.145719 27.667969 52.136719 L 34.765625 46.027344 L 38.529297 46.027344 C 40.785297 46.027344 42.760031 45.551656 44.457031 44.597656 C 46.154031 43.643656 47.479594 42.318094 48.433594 40.621094 C 49.387594 38.924094 49.865234 36.947406 49.865234 34.691406 L 49.865234 23.337891 C 49.865234 21.080891 49.387594 19.10325 48.433594 17.40625 C 47.479594 15.70925 46.154031 14.385641 44.457031 13.431641 C 42.761031 12.477641 40.785297 12 38.529297 12 L 17.335938 12 z M 53.820312 22 C 53.850313 22.44 53.869141 22.889844 53.869141 23.339844 L 53.869141 34.689453 C 53.869141 37.629453 53.209922 40.280078 51.919922 42.580078 C 50.609922 44.920078 48.759922 46.770078 46.419922 48.080078 C 44.129922 49.370078 41.469297 50.029297 38.529297 50.029297 L 36.25 50.029297 L 30.119141 55.310547 C 31.429141 55.790547 32.880703 56.029297 34.470703 56.029297 L 38.230469 56.029297 L 45.330078 62.140625 C 46.500078 63.140625 47.550703 63.859531 48.470703 64.269531 C 49.380703 64.679531 50.330781 64.890625 51.300781 64.890625 C 52.710781 64.890625 53.839922 64.440781 54.669922 63.550781 C 55.509922 62.660781 55.919922 61.440859 55.919922 59.880859 L 55.919922 56.029297 C 56.370922 56.029297 58.805844 56.252609 61.589844 54.599609 C 63.199844 53.639609 64.5 52.319141 65.5 50.619141 C 66.5 48.919141 67 46.949453 67 44.689453 L 67 33.339844 C 67 31.079844 66.520313 29.100156 65.570312 27.410156 C 64.620312 25.710156 63.289844 24.389688 61.589844 23.429688 C 59.899844 22.479688 57.920156 22 55.660156 22 L 53.820312 22 z M 20 24 L 36 24 C 37.104 24 38 24.896 38 26 C 38 27.104 37.104 28 36 28 L 20 28 C 18.896 28 18 27.104 18 26 C 18 24.896 18.896 24 20 24 z M 20 31 L 29 31 C 30.104 31 31 31.896 31 33 C 31 34.104 30.104 35 29 35 L 20 35 C 18.896 35 18 34.104 18 33 C 18 31.896 18.896 31 20 31 z"/></svg>